<svg xmlns="http://www.w3.org/2000/svg" width="512" height="512" viewBox="0 0 512 512" role="img" aria-labelledby="title desc">
  <title id="title">iTXTech FlashMaster app icon</title>
  <desc id="desc">A memory chip with a lightning spark.</desc>
  <defs>
    <linearGradient id="bg" x1="64" y1="32" x2="456" y2="496" gradientUnits="userSpaceOnUse">
      <stop offset="0" stop-color="#07111f"/>
      <stop offset="0.5" stop-color="#10253b"/>
      <stop offset="1" stop-color="#0f172a"/>
    </linearGradient>
    <linearGradient id="chip" x1="140" y1="116" x2="384" y2="404" gradientUnits="userSpaceOnUse">
      <stop offset="0" stop-color="#164e63"/>
      <stop offset="0.52" stop-color="#0f766e"/>
      <stop offset="1" stop-color="#134e4a"/>
    </linearGradient>
    <linearGradient id="spark" x1="190" y1="148" x2="326" y2="368" gradientUnits="userSpaceOnUse">
      <stop offset="0" stop-color="#fde68a"/>
      <stop offset="0.5" stop-color="#f59e0b"/>
      <stop offset="1" stop-color="#f97316"/>
    </linearGradient>
    <filter id="soft-shadow" x="-20%" y="-20%" width="140%" height="140%" color-interpolation-filters="sRGB">
      <feDropShadow dx="0" dy="20" stdDeviation="24" flood-color="#020617" flood-opacity="0.45"/>
    </filter>
  </defs>
  <rect width="512" height="512" rx="104" fill="url(#bg)"/>
  <g fill="none" stroke-linecap="round" stroke-linejoin="round">
    <path d="M80 168h56M80 256h56M80 344h56M376 168h56M376 256h56M376 344h56" stroke="#38bdf8" stroke-width="16" opacity="0.74"/>
    <path d="M168 80v56M256 80v56M344 80v56M168 376v56M256 376v56M344 376v56" stroke="#2dd4bf" stroke-width="16" opacity="0.78"/>
  </g>
  <g filter="url(#soft-shadow)">
    <rect x="124" y="124" width="264" height="264" rx="48" fill="url(#chip)" stroke="#99f6e4" stroke-width="10"/>
    <rect x="164" y="164" width="184" height="184" rx="30" fill="#061826" opacity="0.68"/>
    <path d="M222 326l26-72h-48l86-118-24 78h56l-96 112z" fill="url(#spark)"/>
  </g>
</svg>
