<?xml version="1.0" encoding="UTF-8"?>
<svg width="147px" height="46px" viewBox="0 0 147 46" version="1.1" xmlns="http://www.w3.org/2000/svg" xmlns:xlink="http://www.w3.org/1999/xlink">
    <defs>
        <polygon id="path-1" points="0 0 37.7086957 0 37.7086957 46 0 46"></polygon>
    </defs>
    <g id="" stroke="none" stroke-width="1" fill="none" fill-rule="evenodd">
        <g id="" transform="translate(-260, -27)">
            <g id="" transform="translate(260, 27)">
                <path d="M138.895278,18.4712919 C134.729012,18.4712919 132.481831,20.6875831 131.396331,22.7528053 L130.891396,22.7528053 L131.598194,18.8490563 L121.523968,18.8490563 L116.751928,46 L127.053411,46 L129.704504,30.9384346 C130.310463,27.4627452 131.547774,26.1781995 133.592908,26.1781995 C134.729012,26.1781995 136.294421,26.984207 136.294421,29.2004982 C136.294421,29.67922 136.244001,30.7117393 136.117767,31.442304 L133.592908,46 L143.869182,46 L146.368831,31.8955112 C146.621299,30.5101915 147,28.3695266 147,26.4803376 C147,21.5690334 143.768158,18.4712919 138.895278,18.4712919 L138.895278,18.4712919 Z M100.796423,46 L111.047303,46 L115.894973,18.8490563 L105.644278,18.8490563 L100.796423,46 Z M41.5434783,46 L51.7945421,46 L56.6423965,18.8490563 L46.3911487,18.8490563 L41.5434783,46 Z M92.3176002,18.8490563 L86.6619233,37.3861275 L86.2576441,37.3861275 L85.8791269,18.8490563 L76.2086279,18.8490563 L69.6439208,37.3861275 L69.2400096,37.3861275 L69.7699705,18.8490563 L59.7461643,18.8490563 L61.9683199,46 L72.8507365,46 L79.2638159,28.7977697 L79.6171232,28.7977697 L80.3493157,46 L91.2569423,46 L102.467456,18.8490563 L92.3176002,18.8490563 Z M118.151908,6.38888889 L107.402165,9.26177056 L106.78443,12.7229588 L117.020588,12.7229588 L118.151908,6.38888889 Z" id="Fill-1" fill="#FFFFFF"></path>
                <g id="">
                    <path d="M9.11027378,6.38888889 L7.50458007,15.4401298 C7.09787954,17.7320897 6.22861403,19.9170915 4.94955452,21.8621652 L0,29.3888889 L23.0086957,6.38888889 L9.11027378,6.38888889 Z" id="Fill-3" fill="#1172B9"></path>
                    <g id="" transform="translate(20.4522, 23.6389)" fill="#1172B9">
                        <path d="M0,22.3611129 L22.3695652,0 C22.3695652,0 18.0852269,4.85459706 18.0852269,9.63688462 C18.0852269,13.6758086 16.8556763,16.7858476 13.9579847,18.9748535 C11.5377921,20.818198 8.48884986,21.9461166 4.80147659,22.247041 C3.30230526,22.3695655 0,22.3611129 0,22.3611129" id="Fill-5"></path>
                    </g>
                    <g id="" transform="translate(1.9174, 0)">
                        <mask id="mask-2" fill="white">
                            <use xlink:href="#path-1"></use>
                        </mask>
                        <g id="Clip-8"></g>
                        <path d="M16.3191298,14.8643213 L3.18907401,27.9827687 L0,46 L14.1439434,46 L33.3738468,26.7870979 C32.5767619,25.9923684 31.6251063,25.3682132 30.5137401,24.921602 C32.8299125,24.303316 34.6273005,23.1351572 35.9060876,21.4171255 C37.1850583,19.6994607 37.7833309,17.7068594 37.7012726,15.4389549 C37.6104027,12.9309625 36.5704474,10.8008013 34.5810394,9.04828792 C33.151904,7.81098231 31.2460229,7.05403593 28.8729421,6.66776768 C26.9580658,6.39044688 31.1966411,-3.66826453e-05 31.1966411,-3.66826453e-05 L16.6240488,14.5629733 L23.5878027,14.5629733 C25.6164958,14.5629733 26.6670986,15.5590906 26.7392438,17.5522421 C26.7878913,18.8918923 26.3816386,20.016949 25.5204858,20.927779 C24.6593331,21.8382423 23.5582471,22.2934739 22.2172279,22.2934739 L15.2534739,22.2934739 L16.6240488,14.5629733 M23.6849142,36.4658138 C22.7740124,37.4279995 21.5275346,37.9087256 19.9458479,37.9087256 L12.518015,37.9087256 L13.9711989,29.6114782 L21.347447,29.6114782 C23.6858321,29.6114782 24.8922904,30.6420771 24.9670056,32.7036417 C25.0229962,34.2496318 24.5956324,35.5039948 23.6849142,36.4658138" id="Fill-7" fill="#FFFFFF" mask="url(#mask-2)"></path>
                    </g>
                </g>
            </g>
        </g>
    </g>
</svg>