<?xml version="1.0" encoding="UTF-8"?>
<svg xmlns="http://www.w3.org/2000/svg" xmlns:xlink="http://www.w3.org/1999/xlink" width="141px" height="39px" viewBox="0 0 141 39" version="1.1">
  <title>编组</title>
  <defs>
    <polygon id="path-1" points="0 0 24.9151012 0 24.9151012 37.0113062 0 37.0113062"></polygon>
    <polygon id="path-3" points="0 0 31.0344534 0 31.0344534 35.5884897 0 35.5884897"></polygon>
  </defs>
  <g id="页面-1" stroke="none" stroke-width="1" fill="none" fill-rule="evenodd">
    <g id="关于长鑫" transform="translate(-153.000000, -31.000000)">
      <g id="编组" transform="translate(153.177057, 31.500000)">
        <path d="M49.8203267,9.42089936 C51.8844629,6.86497909 54.4639345,4.87349288 57.5587416,3.4436465 C60.4324055,2.10321541 63.4250237,1.40865017 66.5381928,1.36072198 C66.7178218,1.35835406 66.8611257,1.51483083 66.8447595,1.6940606 L66.1765399,9.33547581 C66.1322314,9.85041212 65.7198832,10.2607645 65.2037494,10.2954927 C62.8765566,10.4579571 60.7166184,11.2591022 58.7227371,12.6997263 C56.2769893,14.432946 54.9425458,16.5996703 54.7150158,19.2010965 C54.4866875,21.802922 55.4431118,23.9720412 57.584688,25.7052609 C59.416504,27.1806133 61.5540884,27.9689848 63.9962437,28.0703753 C64.2900368,28.0823506 64.5147726,28.3366254 64.4888262,28.6296201 L63.8309851,36.1468918 C63.7894708,36.6251039 63.3811144,36.9903495 62.902503,36.9715882 C59.9961067,36.8598191 57.2992775,36.1704431 54.8072253,34.9018636 C51.9619029,33.4752106 49.7305122,31.4825269 48.1142509,28.9278042 C46.0097981,31.4825269 43.4403059,33.4652313 40.4045767,34.8739213 C37.485806,36.2291219 34.47762,36.9180987 31.3788211,36.9707899 C31.1768384,36.9739833 31.0179665,36.7995436 31.0359294,36.5991575 L31.7041491,28.9529522 C31.7476592,28.4623656 32.1396495,28.0703753 32.6310344,28.0392397 C34.9733959,27.8891497 37.1469061,27.1203378 39.1507667,25.7052609 C41.6320412,23.9720412 42.9860442,21.802922 43.2143726,19.2010965 C43.4427009,16.5996703 42.4659186,14.432946 40.2880175,12.6997263 C38.5424234,11.2575055 36.5182048,10.4563604 34.2153617,10.2954927 C33.735952,10.2623612 33.37869,9.8376385 33.4210026,9.35822881 L34.0888231,1.71122514 C34.106786,1.51163743 34.2740405,1.35835406 34.4744266,1.36154747 C37.5732254,1.40984769 40.4648522,2.11558985 43.1532987,3.47318548 C45.9407407,4.88187557 48.1637487,6.86497909 49.8203267,9.42089936" id="Fill-1" fill="#146dc6"></path>
        <g transform="translate(115.084899, 0.000000)">
          <mask id="mask-2" fill="#fff">
            <use xlink:href="#path-1"></use>
          </mask>
          <g id="Clip-4"></g>
          <path d="M15.7243301,15.6538241 C15.7335111,15.5552277 15.8149429,15.4793844 15.9135393,15.4793844 L16.4376566,15.4793844 L23.5365924,15.4793844 C24.002031,15.4793844 24.3904287,15.1237191 24.4303462,14.6590789 L24.9113526,9.08778746 C24.9616487,8.50099958 24.4994035,7.99883689 23.911019,7.99883689 L17.0907076,7.99883689 L16.6168864,7.99883689 C16.5043189,7.99883689 16.4165003,7.90183727 16.4260805,7.7908665 L16.6847462,4.89524794 L17.1557732,0.208529244 C17.1665509,0.0967601237 17.0791315,-0.000239505257 16.966564,-0.000239505257 L15.4261461,-0.000239505257 L9.60257575,-0.000239505257 L9.1111908,-0.000239505257 C8.95950414,-0.000239505257 8.83216718,0.114723018 8.81939356,0.267208031 L8.15795988,7.82359888 C8.14997637,7.92299356 8.06694788,7.99883689 7.96835155,7.99883689 L7.41070348,7.99883689 L1.56877109,7.99883689 C1.02629168,7.99883689 0.575622626,8.41358016 0.526923224,8.95166864 L0.436310402,10.0011008 L0.433915349,9.99351651 L0.00160836054,14.9788184 C-0.020346288,15.2410767 0.185229057,15.46701 0.449084015,15.46701 L2.2345957,15.46701 L7.48814351,15.46701 L7.48814351,15.4793844 L6.50736948,26.6814444 C6.1984077,30.2293156 6.70456215,32.8622768 8.01545425,34.5108713 C9.33432986,36.1706427 11.5984529,37.0113062 14.7443544,37.0113062 L23.4256216,37.0113062 C23.9393604,37.0113062 24.3696715,36.6181184 24.41398,36.1047788 L24.8965831,30.102777 C24.9412907,29.5934292 24.5393211,29.1547354 24.0259815,29.1547354 L18.345316,29.1547354 C18.0299674,29.1547354 17.7517421,29.1491469 17.4998624,29.1407643 L17.8347706,29.1407643 C15.1706738,29.1407643 14.7922555,27.2462777 14.7914571,26.1708991 C14.7914571,26.1708991 14.7914571,26.1605205 14.7922555,26.1549321 C14.7982431,26.0571341 14.8062266,25.9565419 14.8154077,25.8507604 L15.7243301,15.6538241 Z" id="Fill-3" fill="#146dc6" mask="url(#mask-2)"></path>
        </g>
        <g transform="translate(0.000000, 1.362461)">
          <mask id="mask-4" fill="#fff">
            <use xlink:href="#path-3"></use>
          </mask>
          <g id="Clip-6"></g>
          <path d="M6.17061343,5.21922311 C9.79752137,1.73721585 13.933378,-0.00318901688 18.5833725,0 L30.6528408,0.00838707053 C30.876379,0.00998377224 31.0532137,0.200789627 31.0328558,0.424727042 L30.3502658,8.15076745 C30.3103483,8.60103733 29.9347242,8.94712243 29.4820592,8.94512655 L17.7942027,8.93674387 C15.5823717,8.93674387 13.6204244,9.80495042 11.9107561,11.546952 C10.2018861,13.287756 9.23907495,15.3778386 9.02391939,17.8128087 C8.80876384,20.250573 9.40313605,22.3278819 10.8062377,24.0535173 C12.2097385,25.7787535 14.0172048,26.64217 16.2314309,26.6441658 L27.5819842,26.6509518 C28.1923234,26.6525485 28.6701364,27.1742708 28.6162477,27.7834125 L27.9544149,35.2791287 C27.938847,35.4539675 27.7915513,35.5884897 27.6163133,35.5884897 L15.4414627,35.580107 C10.7906698,35.5769136 6.96137996,33.8412988 3.94840383,30.374061 C0.937024399,26.9052266 -0.351114706,22.7166788 0.0815914575,17.8056235 C0.515495148,12.8977616 2.54450385,8.70123036 6.17061343,5.21922311" id="Fill-5" fill="#146dc6" mask="url(#mask-4)"></path>
        </g>
        <path d="M28.1295331,26.5672803 L21.6469242,18.8723755 C21.4796697,18.6723887 21.5056161,18.3758013 21.7040063,18.2077485 L29.4021044,11.7095717 C29.6016921,11.541918 29.899477,11.5678644 30.067929,11.7666538 L36.5493404,19.4623568 C36.7169941,19.660747 36.6926444,19.9581327 36.4930567,20.1253872 L28.7945594,26.623564 C28.59577,26.7924152 28.2983844,26.7676663 28.1295331,26.5672803" id="Fill-7" fill="#146dc6"></path>
        <path d="M109.179549,5.54131337 C107.031586,2.89238523 104.307613,1.5056498 101.011621,1.37392191 L101.031181,1.36074912 L82.3078576,1.36074912 L82.3250221,1.37272438 C79.0038826,1.48529185 76.0208446,2.87282564 73.3818959,5.54131337 C70.6255895,8.32755786 69.0715996,11.6846232 68.7235186,15.6077193 L66.9292251,35.7644817 C66.9080688,36.0498921 66.8885092,36.201978 66.8853158,36.3768168 L66.8853158,36.386397 L66.8469949,36.8338727 C66.8370155,36.9448435 66.9260317,37.0418431 67.0370024,37.0418431 L68.0225666,37.0418431 L73.6525368,37.0418431 L74.5458914,37.0418431 C74.6444877,37.0418431 74.727117,36.9652014 74.7351006,36.8666051 L75.2871602,30.3029635 L76.5840811,15.86878 C76.7217967,14.3295596 77.3161689,13.0274493 78.3687945,11.9636468 C79.4210209,10.8998443 80.6229381,10.3681426 81.9769412,10.3681426 C83.3636766,10.3681426 84.4869563,10.8998443 85.3503727,11.9636468 C86.2125916,13.0274493 86.5754421,14.3295596 86.4385249,15.86878 L85.4349979,27.0013836 L85.4130433,26.9926017 L84.5512235,36.8338727 C84.5408449,36.9448435 84.6286635,37.0418431 84.741231,37.0418431 L85.749149,37.0418431 L91.3779217,37.0418431 L92.2489225,37.0418431 C92.3483171,37.0418431 92.4305473,36.9652014 92.4381316,36.8666051 L92.70518,33.7670079 L94.3106635,15.86878 C94.4475807,14.3295596 95.0427513,13.0274493 96.0941794,11.9636468 C97.1452083,10.8998443 98.3499197,10.3681426 99.702326,10.3681426 C101.08986,10.3681426 102.211942,10.8998443 103.076157,11.9636468 C103.939174,13.0274493 104.302024,14.3295596 104.164309,15.86878 L103.160782,27.004577 L103.130445,26.9926017 L102.268625,36.8338727 C102.258246,36.9448435 102.346464,37.0418431 102.457834,37.0418431 L103.474534,37.0418431 L109.104504,37.0418431 L109.966324,37.0418431 C110.06492,37.0418431 110.147949,36.9667981 110.15713,36.8666051 L110.304425,35.198451 L112.047625,15.6077193 C112.397302,11.6846232 111.44008,8.32755786 109.179549,5.54131337" id="Fill-9" fill="#146dc6"></path>
      </g>
    </g>
  </g>
</svg>
