<svg xmlns="http://www.w3.org/2000/svg" viewBox="-30.00018 -9.0685 260.00156 54.411"><path d="M160.1792 5.734c-3.042-3.696-8.637-5.733-15.744-5.733h-12.93c-1.153 0-1.89.581-2.159 1.529 0 .016-6.87 32.068-6.87 32.068-.164.867.041 1.48.368 1.914.335.434.892.761 1.849.761h12.496c6.478 0 11.908-1.35 16.128-4.008 4.875-3.067 7.982-7.803 9.218-14.083 1.005-5.136.213-9.315-2.356-12.448zm-20.504-.008s2.666-.024 3.664.082c2.2.229 4.613 1.161 6.044 3.001 1.783 2.29 2.339 5.586 1.554 9.274-1.505 7.099-6.895 12.104-12.946 12.243-1.75.041-2.854.017-3.656.024l5.34-24.624M12.4752.001c-3.5 0-6.248 1.881-6.911 4.932-.008.016-4.989 23.292-4.989 23.292-.826 3.599-.785 4.973.27 6.347.9 1.169 2.495 1.66 4.924 1.701h20.659c1.668 0 1.914-.99 2.061-1.595l.899-4.408h-16.905c-.417 0-.687-.091-.842-.271-.164-.196-.196-.556-.098-1.055 0 0 1.66-7.263 1.963-8.563h15.204c.892 0 1.489-.441 1.693-1.251 0-.008.965-4.678.965-4.678h-16.635l1.586-7.328c.213-.81.786-1.276 1.652-1.276h14.885c1.022 0 1.554-.704 1.709-1.366 0-.008.965-4.482.965-4.482h-23.055m180.917.001h-8.801c-3.941 0-5.471 2.355-6.297 3.623l-.024.033c-.008.008-19.694 32.616-19.694 32.616h7.599c1.071 0 1.717-.336 2.158-1.104 0 0 14.321-25.075 15.458-27.071h.122l3.46 26.375c.172 1.178.981 1.8 2.331 1.8h10.297L193.3922.001m-80.37.009c-1.562 0-1.955.777-2.168 1.472-.008.017-7.385 34.792-7.385 34.792h9.381c1.178 0 1.75-.385 2.004-1.35l7.45-34.922-9.282.008m-65.445 30.26c-.376 0-.638-.099-.785-.295-.262-.344-.131-.899-.106-.989.065-.205 6.167-28.985 6.167-28.985h-9.577c-1.374.114-1.726.858-1.897 1.644 0 .008-5.708 26.818-5.708 26.818-.761 3.279-.711 4.539.384 6.019.9 1.219 2.519 1.792 4.899 1.792h19.809c1.055 0 1.685-.434 1.881-1.309l.965-4.694h-16.032m53.946-26.172c-2.577-2.813-5.635-4.098-14.239-4.098h-17.126c-1.595 0-2.724.474-3.558 1.497l-3.599 4.351h22.131c3.1 0 5.071.564 6.028 1.709.744.908.924 2.225.564 4.139-.671 3.533-3.37 5.627-6.862 5.766h-3.779l1.775-8.923-10.207 3.819c-1.636.695-2.061 1.857-2.257 2.789l-4.449 21.125h9.364c1.521 0 1.906-.785 2.069-1.473 0 0 2.126-9.937 2.454-11.466h5.986c10.559 0 16.283-3.778 17.494-11.548.501-3.14-.243-6.011-1.789-7.687" fill="#143580"/></svg>