<svg width="166" height="49" viewBox="0 0 166 49" fill="none" xmlns="http://www.w3.org/2000/svg">
<g clip-path="url(#clip0_295_1182)">
<path d="M68.9778 17.9644C69.3243 18.2303 69.7503 18.3717 70.187 18.3656C70.3063 18.3656 70.4419 18.2463 70.5937 18.0186C70.8022 17.5284 70.9833 17.0269 71.1359 16.5166C71.1825 16.3761 71.2116 16.2304 71.2227 16.0828C71.2227 15.8822 71.1522 15.7954 71.022 15.7954C70.5828 16.163 70.0958 16.4695 69.5743 16.7064C69.2454 16.829 68.9032 16.9127 68.5549 16.9558C68.4247 16.9558 68.3542 17.0751 68.3542 17.2378C68.3542 17.4004 68.5603 17.677 68.9778 17.9644Z" fill="#A61C4B"/>
<path d="M86.3837 14.6079C86.1505 14.6079 86.0366 14.7001 86.0366 14.8953C86.1398 15.497 86.307 16.086 86.5355 16.6521C86.6819 16.9341 86.85 17.0751 87.0777 17.0751C87.5248 17.0765 87.963 16.9504 88.3411 16.7118C88.8834 16.4027 89.1057 16.137 89.1057 15.9147C89.1051 15.8291 89.0783 15.7458 89.0289 15.6759C88.9794 15.6061 88.9097 15.5532 88.8291 15.5243L87.6145 15.3399L86.3837 14.6079Z" fill="#A61C4B"/>
<path d="M70.0026 9.0607C71.0863 8.26276 72.084 7.35413 72.9795 6.34952C73.0211 6.40661 73.0703 6.45769 73.1259 6.50135L75.5497 7.95996C75.729 8.14261 75.9672 8.25593 76.222 8.27988C76.5799 8.27988 76.7643 8.09552 76.7643 7.73764C76.7566 7.62053 76.7258 7.50609 76.6737 7.40093C76.6216 7.29577 76.5491 7.20197 76.4606 7.12493L74.2917 5.45484L73.9446 5.17288C73.9898 5.06457 74.0137 4.9486 74.0151 4.83127C74.0151 4.44086 73.7982 4.24023 73.359 4.24023C73.2777 4.24023 73.1638 4.32157 73.0174 4.47339C72.2804 5.36834 71.3899 6.12483 70.3876 6.7074C69.4708 7.27274 68.4611 7.67112 67.4053 7.88406C67.0528 7.88406 66.863 8.03587 66.863 8.27988C66.8795 8.46938 66.9401 8.65242 67.0398 8.81435C67.1396 8.97629 67.2759 9.11264 67.4378 9.21252C67.7538 9.49144 68.1555 9.65405 68.5765 9.67343C69.0984 9.61328 69.5908 9.40009 69.9917 9.0607" fill="#A61C4B"/>
<path d="M76.9485 16.5598L75.9834 16.3483L75.029 15.5024C74.8609 15.5024 74.7742 15.5729 74.7742 15.6977C74.8627 16.241 75.0137 16.7723 75.2242 17.281C75.3544 17.5412 75.5116 17.6768 75.696 17.6768C76.0152 17.6758 76.3275 17.5836 76.5961 17.4111C76.9702 17.1888 77.1383 16.999 77.1383 16.8418C77.1388 16.7804 77.1202 16.7204 77.0853 16.6699C77.0504 16.6195 77.0007 16.581 76.9431 16.5598" fill="#A61C4B"/>
<path d="M76.5311 18.2681C75.8587 18.3332 74.9044 18.4796 73.7603 18.6802L73.7874 14.646C74.4266 14.657 75.0642 14.7114 75.6961 14.8087C75.8438 14.806 75.9889 14.7687 76.1198 14.7C76.2507 14.6313 76.3637 14.533 76.4498 14.4129C76.5397 14.3323 76.6128 14.2348 76.6649 14.1259C76.717 14.0171 76.7471 13.899 76.7534 13.7784C76.7534 13.4585 76.6341 13.2958 76.3847 13.2958C75.8425 13.3338 74.9532 13.3555 73.7982 13.3663V10.9913C74.3637 11.0022 74.9275 11.0566 75.4846 11.154C75.6331 11.1509 75.7788 11.1135 75.9105 11.0449C76.0421 10.9762 76.1562 10.8781 76.2437 10.7582C76.4209 10.5929 76.5277 10.3657 76.542 10.1238C76.542 9.80927 76.4227 9.63574 76.1732 9.63574C75.2731 9.70081 73.5325 9.72793 70.9407 9.72793L70.0026 9.63574C69.8665 9.63793 69.7324 9.66793 69.6084 9.72388C69.4844 9.77982 69.3731 9.86055 69.2814 9.96109C69.0813 10.148 68.9592 10.4037 68.9398 10.6768C68.9398 11.0835 69.2055 11.2841 69.7369 11.2841C70.55 11.1275 71.3723 11.0225 72.1986 10.9697L72.2366 13.3826H70.5557L69.6013 13.2904C69.4662 13.293 69.3329 13.3232 69.2099 13.3792C69.0868 13.4351 68.9764 13.5156 68.8856 13.6158C68.6859 13.7991 68.5621 14.0506 68.5386 14.3207C68.5386 14.7328 68.8097 14.9334 69.3411 14.9334C70.2524 14.7491 71.1773 14.6403 72.1065 14.608H72.2854L72.3559 18.9459C71.4233 19.1194 70.393 19.3201 69.2272 19.5587C68.9559 19.5892 68.7062 19.7208 68.5277 19.9274C68.3432 20.1648 68.2542 20.4627 68.2783 20.7624C68.2783 21.2016 68.5548 21.424 69.1296 21.424C71.5402 20.6037 73.995 19.9194 76.4823 19.3743C76.6293 19.3454 76.7602 19.2626 76.8495 19.1423C76.9387 19.022 76.9799 18.8727 76.9649 18.7236C76.9649 18.42 76.8239 18.2681 76.5474 18.2681" fill="#A61C4B"/>
<path d="M90.4937 17.5414C89.5771 17.7641 88.6389 17.886 87.6958 17.9046C87.1969 17.9046 86.6113 17.9047 85.8793 17.8775L84.4966 17.8342H84.2417L84.3176 12.9161C85.3587 12.889 86.4866 12.8781 87.7771 12.8781C88.135 12.8781 88.3193 12.6721 88.3193 12.2708C88.3255 12.1526 88.2928 12.0356 88.2262 11.9377C88.1596 11.8397 88.0628 11.7663 87.9506 11.7286C87.6006 11.6146 87.2341 11.5596 86.8661 11.5659H84.3285L84.399 7.59133C85.5485 7.56422 86.8336 7.54796 88.2705 7.54796C88.6284 7.54796 88.8128 7.34733 88.8128 6.94607C88.8182 6.82647 88.784 6.70841 88.7153 6.61032C88.6466 6.51223 88.5475 6.43963 88.4332 6.40384C88.0852 6.28133 87.7175 6.22434 87.3487 6.23575L79.508 6.20321C79.3392 6.20115 79.1719 6.23544 79.0176 6.30374C78.8632 6.37204 78.7253 6.47275 78.6133 6.59905C78.4446 6.7572 78.3387 6.97092 78.3151 7.20092C78.3005 7.30114 78.3096 7.40338 78.3415 7.49949C78.3734 7.5956 78.4273 7.68294 78.4989 7.75454C78.5705 7.82615 78.6578 7.88005 78.754 7.91196C78.8501 7.94388 78.9523 7.95293 79.0525 7.93837C79.9309 7.80824 81.1022 7.71605 82.5445 7.64556V11.5442H79.6924C79.5229 11.5428 79.355 11.5773 79.1998 11.6456C79.0447 11.7138 78.9058 11.8142 78.7922 11.9401C78.6212 12.0993 78.5134 12.315 78.4886 12.5474C78.475 12.6479 78.4849 12.7502 78.5175 12.8462C78.5501 12.9423 78.6046 13.0295 78.6766 13.1009C78.7485 13.1724 78.8361 13.2262 78.9324 13.2581C79.0287 13.29 79.131 13.2991 79.2315 13.2848C80.3438 13.1215 81.4643 13.0202 82.5879 12.9812L82.6204 17.8613C81.639 17.8992 80.3647 18.0131 78.8248 18.192C78.5808 18.1861 78.3386 18.2352 78.1161 18.3357C77.8936 18.4361 77.6966 18.5853 77.5397 18.7722C77.4153 18.8731 77.3148 19.0004 77.2454 19.1447C77.176 19.2891 77.1395 19.4471 77.1384 19.6073C77.1384 20.1007 77.4638 20.3447 78.1145 20.3447C78.882 19.9235 79.7053 19.6131 80.5599 19.4229C81.4778 19.2931 82.4038 19.2297 83.3308 19.2331C84.1463 19.2226 84.9606 19.299 85.76 19.4609C86.4222 19.5924 87.0511 19.8561 87.609 20.2363C87.8699 20.4325 88.1791 20.5543 88.5037 20.5887C88.9861 20.5329 89.4325 20.3059 89.7617 19.9489C90.0388 19.7589 90.2725 19.5123 90.4473 19.2254C90.6221 18.9384 90.734 18.6176 90.7757 18.2842C90.7757 17.7962 90.6835 17.5468 90.4883 17.5468" fill="#A61C4B"/>
<path d="M99.6846 8.0249C99.0122 8.0249 98.676 8.28518 98.676 8.81115C98.676 9.22325 98.9634 9.42931 99.5382 9.42931C100.825 9.26447 102.123 9.19198 103.421 9.2124C103.882 9.2124 104.109 9.03346 104.109 8.67016C104.109 8.30687 103.854 8.05745 103.345 8.05745L99.6846 8.0249Z" fill="#A61C4B"/>
<path d="M104.744 15.9636C105.242 15.9636 105.503 15.7358 105.524 15.2858C105.539 13.7873 105.666 12.292 105.904 10.8124C105.904 10.4436 105.611 10.2701 105.015 10.2701C104.685 10.3245 104.351 10.3571 104.017 10.3677L100.482 10.2701L98.2584 10.3569V10.1562H97.4017C96.9625 10.1562 96.7402 10.4111 96.7402 10.9154C96.8649 11.7578 96.9374 12.6071 96.9571 13.4585C96.9921 14.3278 96.8055 15.1917 96.4148 15.969C96.0259 16.7079 95.3678 17.269 94.5766 17.5361C94.0964 17.7448 93.5816 17.8625 93.0584 17.8831C92.7276 17.9373 92.5649 18.0891 92.5649 18.3332C92.5829 18.4949 92.6371 18.6506 92.7235 18.7886C92.8098 18.9266 92.9262 19.0433 93.0638 19.1302C93.4044 19.4774 93.8546 19.6958 94.3381 19.7484C94.8219 19.6854 95.2814 19.4987 95.672 19.2062C96.4915 18.6274 97.1698 17.8712 97.6565 16.9938C97.7895 16.703 97.893 16.3997 97.9656 16.0883C99.0712 15.8735 100.196 15.7718 101.322 15.7847C102.469 15.7707 103.615 15.8286 104.754 15.9582L104.744 15.9636ZM103.881 14.8195C102.363 14.7653 101.17 14.7327 100.259 14.7327C99.5579 14.7275 98.857 14.7674 98.1608 14.852C98.1608 14.6026 98.1933 14.3369 98.1933 14.0658V13.7621C100.235 13.5353 102.289 13.4393 104.342 13.4747C104.342 13.7513 104.342 14.017 104.342 14.3315C104.342 14.646 104.218 14.8195 103.898 14.8195H103.881ZM104.38 12.5475C104.25 12.5475 104.12 12.5475 103.979 12.5475L98.5078 12.5204C98.4061 12.5262 98.3057 12.5463 98.2096 12.58V11.848C98.2096 11.7342 98.2096 11.6365 98.2096 11.5389C99.1722 11.3986 100.143 11.3243 101.116 11.3166C102.542 11.3166 103.524 11.3166 104.039 11.3871C104.277 11.3871 104.397 11.5118 104.397 11.7613C104.397 11.9998 104.397 12.3035 104.397 12.5746" fill="#A61C4B"/>
<path d="M93.5141 9.01214C93.8324 9.2907 94.2357 9.45317 94.6582 9.47304C95.3729 9.42801 96.069 9.22623 96.697 8.88201C98.3799 8.05066 99.9703 7.04374 101.442 5.87802C101.613 6.08428 101.841 6.23524 102.098 6.31182L105.351 7.80837C105.59 7.92394 105.85 7.98682 106.116 7.99273C106.381 7.99273 106.506 7.84092 106.506 7.53185C106.506 7.30953 106.343 7.12517 106.013 6.98961L102.759 4.91827L102.358 4.65799C102.32 4.33807 102.114 4.16455 101.729 4.16455C101.642 4.16455 101.534 4.23505 101.382 4.39772C100.266 5.30998 99.015 6.04184 97.673 6.56667C96.3467 7.12998 94.952 7.51647 93.5249 7.7162C93.167 7.7162 92.9827 7.86802 92.9827 8.11202C92.9997 8.29926 93.0601 8.47997 93.1589 8.63993C93.2577 8.79989 93.3922 8.93473 93.552 9.03383" fill="#A61C4B"/>
<path d="M109.364 9.95553C109.364 9.35364 109.364 8.6921 109.445 7.96009V7.0166H108.729C108.187 7.0166 107.932 7.33653 107.932 7.97094C108.003 8.63377 108.039 9.2998 108.04 9.96636C108.04 10.7201 108.003 11.7937 107.916 13.171C107.916 14.2066 108.16 14.7272 108.653 14.7272C109.147 14.7272 109.467 14.185 109.467 13.171L109.364 9.95553Z" fill="#A61C4B"/>
<path d="M105.904 16.9339C105.623 16.9816 105.338 17.007 105.053 17.0098C104.44 16.9719 103.903 16.961 103.426 16.961H101.409C101.081 16.9667 100.752 16.9468 100.427 16.9014L100.107 16.8417H99.7658C99.6696 16.828 99.5714 16.8369 99.4793 16.8678C99.3871 16.8987 99.3034 16.9508 99.2349 17.0198C99.1664 17.0888 99.115 17.1729 99.0848 17.2653C99.0546 17.3577 99.0464 17.4559 99.0609 17.5521C99.1957 18.1633 99.2701 18.7862 99.2832 19.4119C99.2716 20.0038 99.1971 20.5927 99.0609 21.1688C99.0488 21.2585 99.0578 21.3499 99.0873 21.4355C99.1168 21.5211 99.1659 21.5987 99.2307 21.6619C99.2955 21.7251 99.3743 21.7723 99.4606 21.7997C99.5469 21.8271 99.6385 21.8338 99.7279 21.8195C100.122 21.7415 100.52 21.6836 100.921 21.646C101.295 21.5971 102.184 21.5809 103.632 21.5809C104.337 21.5902 105.04 21.65 105.736 21.7598C106.17 21.7598 106.392 21.5266 106.392 21.0386C106.335 20.5616 106.302 20.082 106.294 19.6017C106.29 19.1173 106.323 18.6334 106.392 18.154C106.409 17.9117 106.476 17.6756 106.587 17.4599C106.621 17.4192 106.643 17.3707 106.652 17.3189C106.652 17.0641 106.403 16.9339 105.904 16.9339V16.9339ZM103.632 20.4639C102.64 20.4639 101.772 20.5018 101.029 20.5615C100.698 20.5615 100.53 20.4205 100.53 20.1385C100.626 19.5123 100.673 18.8796 100.671 18.2461C100.671 18.1431 100.818 18.0889 101.116 18.0889C102.754 18.0889 103.999 18.0997 104.852 18.1214C105.053 18.1214 105.15 18.1539 105.15 18.2299C105.068 18.8916 105.035 19.5586 105.053 20.2253C105.058 20.2717 105.053 20.3188 105.037 20.3629C105.022 20.4069 104.996 20.4468 104.962 20.4794C104.929 20.5119 104.888 20.5362 104.844 20.5505C104.799 20.5647 104.752 20.5685 104.706 20.5615C104.347 20.501 103.985 20.4684 103.621 20.4639" fill="#A61C4B"/>
<path d="M113.788 4.84748V4.03955H112.953C112.46 4.03955 112.216 4.31066 112.216 4.84748C112.107 6.83748 112.064 9.27213 112.064 12.1406C112.064 13.9733 112.102 16.0392 112.183 18.3274C112.21 18.5244 112.191 18.7251 112.127 18.9134C112.063 19.1018 111.956 19.2725 111.814 19.4119C111.494 19.6451 110.73 19.7535 109.597 19.7535C109.363 19.7535 109.25 19.8566 109.25 20.0409C109.254 20.0943 109.27 20.146 109.296 20.1927C109.323 20.2394 109.358 20.2801 109.401 20.312C109.642 20.6698 109.825 21.0632 109.944 21.4778C110.041 21.711 110.329 21.8249 110.795 21.8249C111.522 21.8228 112.236 21.6362 112.872 21.2826C113.194 21.0737 113.452 20.7798 113.617 20.4334C113.783 20.087 113.849 19.7016 113.81 19.3197C113.593 15.9362 113.484 13.5287 113.484 12.1189C113.484 9.01727 113.575 6.58624 113.755 4.82578" fill="#A61C4B"/>
<path d="M126.384 14.3748L124.4 12.7481H124.166C124.031 12.7471 123.897 12.7787 123.776 12.8403V11.5931V11.0021C124.985 11.0292 125.945 11.0889 126.607 11.1702C126.755 11.1662 126.9 11.1285 127.032 11.0599C127.163 10.9914 127.278 10.8937 127.366 10.7744C127.543 10.609 127.65 10.3819 127.664 10.1399C127.664 9.82545 127.55 9.65192 127.301 9.65192C126.552 9.6953 125.376 9.71699 123.792 9.72784C123.792 8.94702 123.825 8.10113 123.863 7.24982V6.70758C124.888 6.3714 125.864 6.0081 126.791 5.62311C127.116 5.52009 127.263 5.41165 127.263 5.29236C127.263 4.75012 127.1 4.479 126.78 4.479C126.613 4.49341 126.45 4.53555 126.297 4.60371C125.486 4.89873 124.659 5.14678 123.819 5.34658C122.91 5.58597 121.986 5.76709 121.054 5.88882C120.438 5.99485 119.814 6.05466 119.189 6.06775C118.984 6.06848 118.781 6.02791 118.592 5.94846C118.251 5.94846 118.083 6.07859 118.083 6.35513C118.088 6.63755 118.183 6.91095 118.354 7.13595C118.65 7.61312 118.954 7.85171 119.265 7.85171C119.908 7.80846 120.545 7.69203 121.162 7.50467L122.247 7.21186C122.247 7.21186 122.247 7.25525 122.247 7.28778C122.296 8.16078 122.323 8.9904 122.345 9.77664H120.002L119.042 9.68447C118.908 9.68932 118.777 9.72055 118.655 9.77637C118.533 9.8322 118.423 9.91152 118.332 10.0098C118.13 10.1958 118.006 10.4516 117.985 10.7256C117.985 11.1322 118.251 11.3329 118.788 11.3329C119.697 11.1472 120.62 11.0402 121.547 11.0129H122.361C122.361 11.219 122.361 11.425 122.361 11.6257C122.361 11.9185 122.361 12.2547 122.361 12.5908C122.232 12.6329 122.119 12.7121 122.035 12.8186C121.531 13.5159 120.907 14.1181 120.192 14.5971C119.571 15.0429 118.869 15.3634 118.126 15.5406C117.763 15.5406 117.584 15.687 117.584 15.931C117.595 16.118 117.65 16.2998 117.744 16.4618C117.838 16.6238 117.969 16.7614 118.126 16.8637C118.443 17.1441 118.847 17.3069 119.27 17.3246C119.638 17.2715 119.976 17.0912 120.224 16.8149C121.004 16.1002 121.702 15.3019 122.307 14.4344C122.307 16.0883 122.252 18.0349 122.193 20.3069C122.193 21.3913 122.464 21.9715 122.984 21.9715C123.505 21.9715 123.868 21.4293 123.868 20.3069L123.798 14.2121L123.847 14.2447C124.613 14.7024 125.419 15.0907 126.254 15.405C126.525 15.405 126.661 15.2424 126.661 14.9116C126.655 14.8075 126.628 14.7056 126.582 14.6123C126.535 14.519 126.47 14.4363 126.39 14.3694" fill="#A61C4B"/>
<path d="M129.589 11.9834L132.799 12.5257C133.178 12.5257 133.374 12.4064 133.374 12.1732C133.373 12.0301 133.325 11.8911 133.238 11.7776C133.151 11.664 133.029 11.5821 132.891 11.5442L129.762 10.0693C129.068 10.0693 128.721 10.2971 128.721 10.7634C128.681 11.0377 128.747 11.3171 128.907 11.544C129.066 11.7709 129.306 11.9281 129.578 11.9834" fill="#A61C4B"/>
<path d="M130.028 8.307L133.016 9.18542C133.374 9.18542 133.558 9.07156 133.558 8.85467C133.556 8.72232 133.511 8.59426 133.43 8.48968C133.348 8.38509 133.236 8.30959 133.108 8.27447L130.18 6.51221C129.529 6.51221 129.215 6.7291 129.215 7.16831C129.176 7.42477 129.237 7.68631 129.385 7.89912C129.534 8.11193 129.758 8.25985 130.012 8.31243" fill="#A61C4B"/>
<path d="M140.808 13.9952C140.106 14.3615 139.332 14.5706 138.541 14.6079C138.048 14.6079 137.457 14.6079 136.801 14.5591L136.735 10.4273C136.735 8.9578 136.773 7.32566 136.828 5.52002V4.43555H136.02C135.412 4.43555 135.109 4.79884 135.109 5.52002C135.19 7.32566 135.234 8.9578 135.234 10.4273C135.234 11.5443 135.234 12.8944 135.234 14.4506L134.653 14.4127H133.401C131.678 14.4686 129.962 14.6498 128.266 14.9549C128.036 14.9476 127.808 14.9927 127.599 15.0866C127.389 15.1805 127.204 15.321 127.057 15.4972C126.938 15.5909 126.843 15.7105 126.778 15.8468C126.713 15.9831 126.681 16.1325 126.682 16.2834C126.682 16.7443 126.992 16.972 127.599 16.972C128.434 16.5 129.332 16.1512 130.267 15.9364C131.263 15.789 132.269 15.7165 133.276 15.7195C133.925 15.7185 134.573 15.7583 135.217 15.8388C135.217 17.1943 135.168 18.6964 135.136 20.3393C135.136 21.5268 135.407 22.1124 135.976 22.1124C136.546 22.1124 136.914 21.5268 136.914 20.3393L136.855 16.1424C137.359 16.2829 137.84 16.4928 138.286 16.766C138.6 16.9711 138.959 17.0942 139.333 17.1239C139.609 17.1239 139.94 16.8961 140.314 16.4461C140.78 15.9699 141.061 15.3431 141.106 14.6784C141.106 14.2175 141.019 13.9897 140.835 13.9897" fill="#A61C4B"/>
<path d="M165.501 19.6072C164.745 19.53 163.997 19.3829 163.267 19.168C162.072 18.7613 160.929 18.2153 159.862 17.5413L159.515 17.319C160.274 16.452 160.949 15.5152 161.532 14.5211C161.83 13.8985 162.193 13.3095 162.617 12.7642C162.764 12.6203 162.855 12.4277 162.871 12.222C162.871 11.631 162.47 11.3382 161.684 11.3382C161.306 11.4573 160.917 11.5373 160.524 11.5767L159.081 11.3978L159.179 8.93063C160.979 8.95774 162.389 9.01738 163.359 9.11498C163.518 9.11043 163.674 9.07003 163.815 8.99678C163.955 8.92354 164.078 8.81935 164.173 8.69204C164.362 8.51294 164.476 8.26881 164.493 8.00882C164.493 7.66721 164.357 7.4937 164.102 7.4937C163.083 7.53166 161.451 7.5642 159.222 7.58046L159.314 5.16751V4.23486H158.349C157.78 4.23486 157.492 4.53852 157.492 5.1404L157.563 7.58046H154.781L153.767 7.48828C153.624 7.48927 153.482 7.52017 153.352 7.57899C153.221 7.63781 153.104 7.72327 153.008 7.82989C152.788 8.02811 152.654 8.30432 152.634 8.59987C152.634 9.03366 152.916 9.24511 153.491 9.24511C154.466 9.04556 155.456 8.93127 156.451 8.90352H157.59L157.655 11.3273H157.276C156.733 11.3273 155.817 11.3761 154.613 11.4791C154.071 11.6743 153.816 11.9888 153.816 12.4281C153.816 12.8673 154.147 13.1601 154.808 13.1601C155.34 12.9926 155.884 12.8657 156.435 12.7805C157.465 12.7317 158.197 12.71 158.642 12.71C159.244 12.71 159.759 12.71 160.187 12.7588C160.469 12.8185 160.605 12.9052 160.605 13.0299L160.507 13.2468C160.178 13.9005 159.794 14.5245 159.358 15.1121C159.022 15.5964 158.647 16.0517 158.235 16.4731C157.151 15.7357 155.99 14.8464 154.722 13.827L154.326 13.5179H154.071C153.496 13.5179 153.22 13.7131 153.22 14.1144C153.224 14.1852 153.245 14.2541 153.28 14.3153C153.316 14.3766 153.366 14.4285 153.426 14.4668C154.692 15.4229 155.904 16.4474 157.059 17.5359C156.276 18.1937 155.394 18.7226 154.445 19.103C153.654 19.3963 152.831 19.5982 151.994 19.7048C151.882 19.7167 151.779 19.769 151.703 19.8519C151.627 19.9348 151.584 20.0425 151.582 20.1549C151.599 20.3258 151.653 20.4911 151.739 20.6397C151.825 20.7884 151.941 20.917 152.081 21.0171C152.221 21.1885 152.394 21.3305 152.589 21.4347C152.785 21.539 152.999 21.6034 153.22 21.6244C153.648 21.5918 154.065 21.4777 154.45 21.2882C155.882 20.6382 157.183 19.7323 158.289 18.615C159.634 19.8079 160.589 20.6538 161.131 21.1526C161.566 21.4668 162.091 21.6322 162.627 21.6244C163.252 21.6354 163.872 21.5249 164.455 21.299C165.49 20.7568 166.011 20.3447 166.011 20.0031C166.011 19.7645 165.848 19.6398 165.523 19.6072" fill="#A61C4B"/>
<path d="M151.571 12.5582C151.718 12.5304 151.848 12.4488 151.938 12.3294C152.027 12.2099 152.068 12.0613 152.054 11.9129C152.054 11.6038 151.913 11.452 151.641 11.452C151.012 11.5605 150.167 11.7611 149.109 12.0593C149.109 11.0237 149.109 10.1778 149.109 9.53793C149.109 9.3861 149.109 9.21259 149.109 9.04992C149.83 9.04992 150.6 9.01739 151.435 9.01739C151.782 9.01739 151.978 8.82218 151.978 8.42093C151.983 8.302 151.95 8.18448 151.882 8.08648C151.815 7.98848 151.717 7.91546 151.604 7.87869C151.254 7.7647 150.887 7.70973 150.519 7.71603H149.153C149.191 6.97316 149.256 6.15438 149.332 5.25427V4.44092H148.578C147.981 4.44092 147.667 4.91266 147.651 5.86157C147.651 6.45803 147.651 7.0816 147.651 7.7106H144.761C144.591 7.70635 144.423 7.73908 144.267 7.80651C144.112 7.87393 143.973 7.97443 143.86 8.10101C143.689 8.25771 143.581 8.47185 143.557 8.70288C143.544 8.80279 143.554 8.90435 143.587 8.99952C143.62 9.09469 143.675 9.18088 143.747 9.25132C143.819 9.32176 143.906 9.37451 144.002 9.40543C144.098 9.43635 144.2 9.44459 144.3 9.42949C145.412 9.25222 146.535 9.14535 147.661 9.10956C147.661 10.194 147.661 11.311 147.694 12.4823C146.723 12.7751 145.639 13.1167 144.403 13.5234C144.249 13.5603 144.107 13.6325 143.986 13.7341C143.866 13.8358 143.771 13.9641 143.709 14.109C143.53 14.349 143.443 14.6454 143.465 14.944C143.465 15.3832 143.752 15.6055 144.316 15.6055C145.4 15.0633 146.534 14.5211 147.71 14.0276C147.71 14.5102 147.71 15.0091 147.71 15.5079C147.71 16.972 147.515 17.9317 147.108 18.3872C146.895 18.6311 146.628 18.8208 146.327 18.9405C146.026 19.0603 145.701 19.1066 145.379 19.0759L143.79 18.9945C143.497 18.9945 143.34 19.1247 143.34 19.3849C143.603 19.8397 143.833 20.3127 144.028 20.8002C144.153 21.158 144.571 21.3424 145.221 21.3424C145.799 21.3753 146.376 21.2728 146.907 21.0431C147.438 20.8134 147.908 20.4628 148.28 20.0194C148.849 19.3849 149.131 18.1866 149.131 16.4352C149.131 15.3507 149.131 14.353 149.098 13.4691C149.901 13.1546 150.725 12.8564 151.555 12.5745" fill="#A61C4B"/>
<path d="M1.94118 37.0728L2.22856 35.7551H9.92831L10.8501 38.6236L9.49452 39.0465C9.41461 38.766 9.28615 38.5018 9.11495 38.2657C8.94668 38.0176 8.72882 37.8071 8.47512 37.6475C8.21396 37.4935 7.92756 37.387 7.62923 37.333C7.31374 37.2825 6.99432 37.2607 6.67489 37.268H5.30846L4.76623 39.6972H5.0753C5.35557 39.702 5.63553 39.6765 5.91034 39.6213C6.07699 39.5823 6.23039 39.5 6.35498 39.3827C6.48177 39.2352 6.57765 39.0637 6.63694 38.8784C6.70162 38.6897 6.74881 38.4955 6.77792 38.2982H8.0576L7.14122 42.3541H5.86154C5.92703 42.107 5.97237 41.8549 5.9971 41.6004C6.00296 41.5009 5.98126 41.4016 5.93439 41.3136C5.88751 41.2256 5.81728 41.1522 5.73141 41.1016C5.46208 40.9984 5.17287 40.9576 4.88552 40.9823H4.47342L3.96372 43.2271L3.90407 43.4386C3.88253 43.4939 3.8715 43.5528 3.87154 43.6121C3.87096 43.6481 3.88318 43.6831 3.90602 43.7109C3.92887 43.7387 3.96084 43.7575 3.99625 43.7639C4.14784 43.776 4.30014 43.776 4.45173 43.7639H5.24339C5.79242 43.7825 6.34105 43.7167 6.8701 43.5687C7.40883 43.4213 7.90136 43.1396 8.3016 42.75C8.70252 42.3441 9.01945 41.8632 9.23425 41.3347L10.5627 41.877L8.72997 45.3147H0.0541992L0.35785 43.9917H0.710304C0.951802 44.0195 1.19543 43.962 1.39894 43.829C1.57259 43.6118 1.68326 43.3511 1.71886 43.0753L2.87925 37.9241C2.91749 37.7675 2.94109 37.6078 2.94973 37.4469C2.94909 37.3723 2.92849 37.2993 2.89009 37.2354C2.8544 37.1772 2.80128 37.1317 2.73826 37.1053C2.62108 37.0777 2.50062 37.0668 2.38039 37.0728H1.94118Z" fill="#9B1D46"/>
<path d="M13.8703 36.1292H15.4102L14.868 38.4662H16.8688L16.5489 39.8055H14.5752L13.8649 42.8746C13.8144 43.0755 13.7817 43.2806 13.7673 43.4873C13.7649 43.5455 13.7748 43.6036 13.7963 43.6577C13.8178 43.7119 13.8504 43.761 13.892 43.8018C13.9924 43.8839 14.1204 43.9246 14.2498 43.9156C14.4841 43.8915 14.7082 43.8075 14.9005 43.6716C15.237 43.448 15.5385 43.1757 15.7952 42.8637L16.7062 43.6554C16.2611 44.2113 15.7303 44.6927 15.1337 45.0815C14.6988 45.3215 14.2098 45.4466 13.713 45.4447C13.1591 45.4675 12.6181 45.2729 12.2056 44.9025C12.0231 44.7518 11.8756 44.5632 11.7736 44.3496C11.6715 44.1361 11.6172 43.9029 11.6146 43.6662C11.6271 43.335 11.6744 43.0061 11.7556 42.6848L12.4062 39.7947H10.9097L11.2187 38.6451C11.6179 38.5529 11.9978 38.3914 12.3412 38.168C12.6642 37.9407 12.9481 37.6623 13.1816 37.3438C13.4695 36.9776 13.6965 36.5675 13.854 36.1292" fill="#9B1D46"/>
<path d="M20.9846 38.2926L20.6321 39.838C20.8415 39.5021 21.0971 39.1972 21.3912 38.9324C21.6235 38.7302 21.8897 38.5705 22.1775 38.4607C22.4335 38.3534 22.7078 38.2964 22.9854 38.2926C23.3275 38.2753 23.6632 38.3898 23.9235 38.6125C24.0374 38.7134 24.128 38.838 24.1889 38.9776C24.2498 39.1171 24.2795 39.2682 24.2759 39.4204C24.284 39.7405 24.1718 40.052 23.9614 40.2934C23.8656 40.4011 23.7477 40.4869 23.6158 40.5449C23.4839 40.6029 23.341 40.6318 23.1969 40.6296C23.0866 40.63 22.9769 40.6135 22.8715 40.5808C22.7093 40.5131 22.5533 40.4315 22.4052 40.3368C22.2727 40.2484 22.1195 40.1961 21.9606 40.185C21.865 40.1884 21.7711 40.2105 21.684 40.2501C21.5075 40.3507 21.3467 40.4768 21.2069 40.6242C20.9936 40.8741 20.8115 41.1491 20.6646 41.443C20.4601 41.8498 20.2931 42.2745 20.1658 42.7118C19.9868 43.292 19.8404 43.8342 19.7211 44.3385L19.4934 45.282H17.3245L18.4686 40.1741H17.3841L17.6932 38.8511C18.599 38.8098 19.4915 38.6174 20.3339 38.2817L20.9846 38.2926Z" fill="#9B1D46"/>
<path d="M27.9523 40.0279C28.1637 40.3137 28.2656 40.6657 28.2396 41.0202C28.2414 41.5777 28.1346 42.1302 27.9251 42.6469C27.7773 43.0634 27.5275 43.4363 27.1985 43.7314C26.9506 43.9384 26.6377 44.0516 26.3147 44.0513C26.1771 44.0558 26.0403 44.0282 25.9152 43.9708C25.79 43.9134 25.6799 43.8278 25.5935 43.7206C25.3843 43.4338 25.2825 43.0825 25.3061 42.7283C25.3072 42.1816 25.414 41.6403 25.6206 41.1341C25.7654 40.7096 26.0132 40.3277 26.3418 40.0225C26.5816 39.8148 26.8867 39.6977 27.204 39.6918C27.3462 39.6862 27.4878 39.7137 27.6176 39.772C27.7474 39.8303 27.8619 39.9179 27.9523 40.0279V40.0279ZM25.0784 38.8459C24.4332 39.1988 23.8955 39.7197 23.5222 40.3533C23.157 40.9838 22.9696 41.7015 22.98 42.43C22.965 42.8351 23.0376 43.2385 23.193 43.6129C23.3483 43.9872 23.5827 44.3236 23.8801 44.599C24.5579 45.1808 25.4334 45.4798 26.3255 45.434C27.0835 45.4459 27.8313 45.2589 28.4945 44.8918C29.1193 44.5156 29.6351 43.983 29.9911 43.3464C30.3728 42.7053 30.5734 41.9725 30.5713 41.2263C30.586 40.823 30.5081 40.4218 30.3436 40.0533C30.1791 39.6848 29.9324 39.359 29.6223 39.1007C28.9523 38.5586 28.1086 38.2774 27.2474 38.309C26.4896 38.2989 25.7422 38.4858 25.0784 38.8513" fill="#9B1D46"/>
<path d="M31.5798 45.293L32.7294 40.1851H31.6774L31.9648 38.8621C32.8626 38.813 33.7467 38.6208 34.5838 38.2927H35.2291L34.92 39.6266C35.1638 39.3301 35.4444 39.0659 35.7551 38.8404C36.0008 38.6656 36.2713 38.5285 36.5576 38.4337C36.8337 38.341 37.123 38.2934 37.4143 38.2927C37.6596 38.2829 37.9043 38.3229 38.1336 38.4106C38.3629 38.4982 38.572 38.6315 38.7482 38.8024C38.9148 38.9583 39.0468 39.1475 39.1355 39.3577C39.2243 39.5678 39.2678 39.7943 39.2633 40.0225C39.2719 40.1398 39.2719 40.2576 39.2633 40.3749C39.2633 40.4291 39.2254 40.5972 39.1603 40.8629L38.656 43.0319C38.6084 43.2264 38.574 43.4238 38.553 43.6229C38.5512 43.6569 38.5566 43.6908 38.5688 43.7225C38.5809 43.7543 38.5995 43.7831 38.6235 43.8073C38.6841 43.8538 38.7586 43.8786 38.8349 43.8778C39.0017 43.8547 39.1619 43.7976 39.3055 43.7099C39.4492 43.6222 39.5733 43.5058 39.67 43.3681L40.402 44.2736C40.0506 44.6316 39.6419 44.9285 39.1928 45.152C38.8436 45.317 38.462 45.4022 38.0758 45.4014C37.8457 45.4156 37.6151 45.382 37.3986 45.3027C37.1821 45.2234 36.9843 45.1 36.8178 44.9405C36.6822 44.8124 36.5731 44.6589 36.4968 44.4886C36.4205 44.3184 36.3785 44.1347 36.3732 43.9482C36.3924 43.6134 36.4432 43.2812 36.525 42.956L37.0022 40.8629C37.0408 40.7006 37.068 40.5357 37.0835 40.3695C37.0836 40.3122 37.0716 40.2555 37.0482 40.2032C37.0248 40.1508 36.9907 40.1041 36.948 40.0658C36.8489 39.9808 36.7204 39.9379 36.5901 39.9466C36.4249 39.9428 36.2619 39.984 36.1183 40.0658C35.7999 40.2785 35.524 40.5488 35.305 40.8629C35.0162 41.2634 34.7794 41.6989 34.6001 42.1589C34.3508 42.8513 34.1479 43.5596 33.9928 44.279L33.7596 45.2876L31.5798 45.293Z" fill="#9B1D46"/>
<path d="M48.0746 35.4404H48.9313L48.9855 35.7495H54.1368L54.2506 35.4404H55.1128L55.758 38.889L54.3808 39.1493L54.3265 38.9487C54.2529 38.606 54.155 38.269 54.0337 37.9401C53.9424 37.6849 53.7875 37.4573 53.5837 37.2786C53.4392 37.1323 53.2465 37.0437 53.0414 37.0292C53.006 37.0279 52.9708 37.0351 52.9387 37.0502C52.9067 37.0653 52.8787 37.0878 52.8571 37.1159C52.7857 37.2494 52.7484 37.3984 52.7486 37.5497L51.4744 43.0968C51.4147 43.4276 51.3876 43.6011 51.3876 43.639C51.3863 43.6971 51.4014 43.7543 51.4311 43.8042C51.4609 43.854 51.504 43.8945 51.5557 43.921C51.6985 43.9698 51.85 43.9883 52.0003 43.9752H52.4396L52.1359 45.2983H47.5269L47.8306 43.9752H48.1722H48.3511C48.5469 43.9926 48.7417 43.9322 48.8933 43.8071C49.052 43.5978 49.1546 43.3514 49.1916 43.0914L50.4333 37.5822C50.4598 37.4647 50.4744 37.3448 50.4767 37.2244C50.4801 37.1977 50.4764 37.1706 50.4659 37.1458C50.4554 37.121 50.4386 37.0995 50.417 37.0834C50.355 37.0365 50.2774 37.0151 50.2001 37.0237C49.9802 37.0226 49.7629 37.0727 49.5657 37.1701C49.2099 37.3538 48.8873 37.5958 48.6114 37.8859C48.2092 38.3251 47.8464 38.7986 47.5269 39.3011L46.1279 38.6559L48.0746 35.4404Z" fill="#A61C4B"/>
<path d="M58.697 40.3369C58.906 40.1155 59.1519 39.932 59.4236 39.7946C59.6563 39.6778 59.9116 39.6131 60.1719 39.6048C60.3391 39.5958 60.5036 39.65 60.6327 39.7567C60.6881 39.801 60.7329 39.857 60.7638 39.9208C60.7948 39.9846 60.8111 40.0545 60.8117 40.1254C60.8104 40.2946 60.7422 40.4564 60.6219 40.5754C60.3914 40.7963 60.1073 40.9532 59.7977 41.0309C59.2526 41.1677 58.6947 41.2477 58.133 41.2695C58.2625 40.9348 58.4456 40.6235 58.6753 40.3477L58.697 40.3369ZM60.2152 43.6662C59.8866 43.8308 59.5253 43.9197 59.1579 43.9264C58.9832 43.9345 58.8088 43.9064 58.6455 43.8439C58.4822 43.7814 58.3336 43.6858 58.209 43.5631C58.0863 43.4439 57.9901 43.3002 57.9266 43.1414C57.8631 42.9826 57.8336 42.8123 57.8402 42.6414V42.4733C58.5979 42.4744 59.3538 42.3981 60.0959 42.2455C60.6514 42.1521 61.188 41.969 61.6847 41.7033C62.0209 41.5038 62.3008 41.222 62.498 40.8845C62.65 40.6212 62.7251 40.3207 62.7149 40.0169C62.7127 39.7822 62.655 39.5513 62.5466 39.3431C62.4383 39.1349 62.2823 38.9551 62.0914 38.8186C61.5847 38.4546 60.968 38.2765 60.3454 38.3143C59.4704 38.3103 58.6079 38.5226 57.8348 38.9324C57.1066 39.2862 56.4853 39.827 56.0346 40.4995C55.6279 41.1097 55.4109 41.8267 55.411 42.56C55.3982 43.0146 55.4956 43.4656 55.6948 43.8744C55.8941 44.2832 56.1892 44.6378 56.5551 44.9079C57.1718 45.3057 57.8995 45.4957 58.6319 45.4501C59.269 45.4518 59.8998 45.3245 60.4863 45.076C61.1806 44.761 61.8196 44.3362 62.3787 43.818L61.5383 42.804C61.1525 43.151 60.713 43.433 60.2369 43.6391" fill="#A61C4B"/>
<path d="M69.4442 42.9992L70.2142 44.0349C69.1546 44.9119 67.8315 45.4083 66.4565 45.4447C65.6186 45.4885 64.7975 45.1979 64.1737 44.6368C63.8942 44.3687 63.6745 44.0447 63.5287 43.6859C63.383 43.3271 63.3145 42.9416 63.3278 42.5546C63.3271 41.8194 63.54 41.0998 63.9405 40.4832C64.3585 39.8165 64.9436 39.2706 65.6377 38.8999C66.3374 38.4989 67.1304 38.2894 67.9368 38.2926C68.6263 38.257 69.3073 38.4579 69.8672 38.862C70.0807 39.0126 70.2557 39.2113 70.3782 39.4421C70.5006 39.6729 70.5671 39.9292 70.5721 40.1904C70.5814 40.345 70.5598 40.4999 70.5086 40.6461C70.4574 40.7923 70.3776 40.9268 70.2738 41.0417C70.1715 41.147 70.0481 41.2295 69.9116 41.2837C69.7752 41.3379 69.6288 41.3626 69.4822 41.3562C69.2918 41.3605 69.1041 41.3117 68.9399 41.2153C68.7796 41.124 68.6453 40.9934 68.5495 40.8357C68.4781 40.7031 68.427 40.5605 68.3977 40.4128C68.3578 40.2548 68.2958 40.1033 68.2133 39.9627C68.1573 39.8775 68.0784 39.8099 67.9856 39.7675C67.8887 39.7159 67.7809 39.688 67.6711 39.6862C67.3885 39.7011 67.12 39.8143 66.912 40.0061C66.5459 40.3196 66.2566 40.7129 66.0661 41.1556C65.8431 41.6137 65.7246 42.1156 65.7191 42.6251C65.7103 42.7966 65.7382 42.9679 65.8008 43.1278C65.8635 43.2877 65.9594 43.4324 66.0824 43.5523C66.206 43.6763 66.3544 43.7728 66.5179 43.8354C66.6815 43.8981 66.8564 43.9254 67.0313 43.9156C67.4146 43.9057 67.793 43.8267 68.1483 43.6824C68.6085 43.5129 69.0443 43.2832 69.4442 42.9992" fill="#A61C4B"/>
<path d="M75.1594 35.2561H75.8046L74.8123 39.6482C75.075 39.3487 75.3737 39.0828 75.7016 38.8566C75.9681 38.6744 76.2606 38.5337 76.5692 38.439C76.88 38.3425 77.2035 38.2932 77.5289 38.2926C77.9015 38.2831 78.2717 38.3553 78.6134 38.5041C78.9065 38.6318 79.1554 38.843 79.3291 39.1114C79.4979 39.3576 79.5903 39.648 79.5948 39.9465C79.5944 40.0447 79.5853 40.1426 79.5677 40.2393C79.5677 40.2935 79.5298 40.429 79.481 40.6568L78.9387 43.0968C78.8912 43.2746 78.8586 43.4559 78.8411 43.6391C78.8443 43.716 78.8751 43.7891 78.9279 43.8451C78.9869 43.8993 79.0647 43.9285 79.1448 43.9265C79.2606 43.9212 79.3737 43.8897 79.4755 43.8343C79.6732 43.7294 79.8556 43.598 80.0178 43.4439L80.7823 44.344C80.4111 44.6963 79.9888 44.9907 79.5298 45.217C79.1886 45.3705 78.8194 45.4517 78.4453 45.4556C77.9881 45.4734 77.541 45.3185 77.1927 45.0218C77.0402 44.8974 76.9165 44.7413 76.8304 44.5643C76.7442 44.3874 76.6976 44.1938 76.6939 43.997C76.7058 43.6718 76.7494 43.3485 76.824 43.0318L77.2795 41.0743C77.3371 40.8505 77.3734 40.6217 77.3879 40.3911C77.3894 40.3346 77.3791 40.2784 77.3576 40.2261C77.3361 40.1738 77.304 40.1266 77.2632 40.0874C77.16 40.0017 77.0286 39.9572 76.8945 39.9627C76.5054 39.9858 76.1368 40.1451 75.8534 40.4128C75.3149 40.8967 74.8859 41.4901 74.5954 42.1533C74.2602 42.8465 74.0002 43.5737 73.82 44.3223L73.5652 45.32H71.3962L73.229 37.1865H72.1445L72.4428 35.858C73.3706 35.8064 74.285 35.6125 75.1539 35.2832" fill="#A61C4B"/>
<path d="M81.2268 45.2929L82.3763 40.185H81.3244L81.6064 38.862C82.5043 38.814 83.3886 38.6217 84.2254 38.2926H84.8706L84.567 39.6265C84.8093 39.3286 85.0901 39.0642 85.402 38.8403C85.6472 38.6645 85.9178 38.5273 86.2045 38.4336C86.4789 38.3415 86.7664 38.2938 87.0558 38.2926C87.302 38.2823 87.5476 38.3222 87.7779 38.4098C88.0081 38.4974 88.2181 38.631 88.3952 38.8023C88.5608 38.9586 88.6917 39.148 88.7796 39.3582C88.8674 39.5684 88.91 39.7946 88.9049 40.0223C88.9133 40.1397 88.9133 40.2575 88.9049 40.3748C88.9049 40.429 88.8669 40.5971 88.8018 40.8628L88.2976 43.0318C88.25 43.2262 88.2155 43.4237 88.1945 43.6228C88.1928 43.6567 88.1982 43.6907 88.2103 43.7224C88.2224 43.7542 88.2411 43.783 88.265 43.8071C88.3226 43.8553 88.396 43.8804 88.4711 43.8776C88.6389 43.8559 88.8004 43.7994 88.9452 43.7116C89.0899 43.6238 89.2147 43.5068 89.3115 43.3679L90.0435 44.2735C89.6931 44.6326 89.2843 44.9297 88.8344 45.1519C88.4848 45.3158 88.1035 45.401 87.7174 45.4013C87.4871 45.4165 87.2563 45.3833 87.0396 45.304C86.8229 45.2246 86.6253 45.1007 86.4594 44.9404C86.3237 44.8123 86.2147 44.6588 86.1384 44.4885C86.0621 44.3182 86.0201 44.1346 86.0147 43.9481C86.0309 43.6126 86.0836 43.2799 86.172 42.9558L86.6383 40.8628C86.6787 40.701 86.7042 40.5358 86.7142 40.3694C86.7164 40.3123 86.7059 40.2554 86.6834 40.2029C86.6609 40.1504 86.627 40.1035 86.5841 40.0657C86.5371 40.0237 86.4823 39.9914 86.4226 39.9709C86.363 39.9505 86.2999 39.9421 86.2371 39.9464C86.0685 39.9434 85.9022 39.9845 85.7545 40.0657C85.4378 40.2787 85.1638 40.549 84.9465 40.8628C84.6543 41.2629 84.4138 41.6983 84.2308 42.1587C83.9886 42.8525 83.7894 43.5606 83.6343 44.2789L83.3957 45.2874L81.2268 45.2929Z" fill="#A61C4B"/>
<path d="M95.5473 40.0279C95.7587 40.3136 95.8607 40.6657 95.8347 41.0201C95.8392 41.5779 95.7323 42.1309 95.5202 42.6469C95.3741 43.0629 95.1262 43.4357 94.7991 43.7313C94.5506 43.9375 94.2381 44.0506 93.9152 44.0512C93.7768 44.0557 93.6393 44.0282 93.5132 43.9708C93.3872 43.9135 93.2761 43.8278 93.1886 43.7205C92.9837 43.4318 92.8842 43.0815 92.9066 42.7282C92.9077 42.1815 93.0145 41.6402 93.2211 41.134C93.364 40.7086 93.6121 40.3263 93.9423 40.0224C94.1817 39.8139 94.4871 39.6967 94.8045 39.6917C94.946 39.6857 95.0869 39.713 95.2159 39.7714C95.3449 39.8298 95.4584 39.9176 95.5473 40.0279V40.0279ZM92.6735 38.8458C92.0309 39.2004 91.4954 39.721 91.1227 40.3532C90.7457 40.98 90.5487 41.6985 90.5533 42.43C90.5398 42.8348 90.6131 43.2379 90.7684 43.612C90.9236 43.9861 91.1572 44.3226 91.4535 44.5989C92.133 45.1815 93.0105 45.4805 93.9044 45.434C94.6625 45.4476 95.4108 45.2605 96.0733 44.8917C96.7157 44.5141 97.2469 43.9735 97.6133 43.3247C97.9926 42.6824 98.1929 41.9504 98.1934 41.2045C98.2094 40.8011 98.1321 40.3994 97.9675 40.0308C97.803 39.6621 97.5555 39.3364 97.2445 39.079C96.5785 38.5372 95.7384 38.2558 94.8804 38.2873C94.1136 38.2737 93.3566 38.4606 92.6843 38.8295" fill="#A61C4B"/>
<path d="M104.017 35.2561L102.222 43.189C102.183 43.3477 102.156 43.509 102.141 43.6716C102.138 43.7049 102.143 43.7383 102.155 43.7693C102.167 43.8003 102.187 43.8281 102.211 43.8505C102.265 43.8943 102.332 43.9174 102.401 43.9156C102.512 43.9113 102.62 43.8796 102.716 43.8234C102.917 43.7244 103.1 43.5925 103.258 43.433L103.995 44.3169C103.646 44.6808 103.235 44.98 102.781 45.2007C102.423 45.3612 102.035 45.4443 101.642 45.4447C101.424 45.4539 101.207 45.4192 101.003 45.3429C100.799 45.2665 100.613 45.1499 100.455 45.0001C100.307 44.8613 100.19 44.693 100.112 44.5062C100.033 44.3194 99.9949 44.1182 99.9991 43.9156C100.009 43.6135 100.053 43.3135 100.129 43.0209L101.452 37.1756H99.9395L100.292 35.8472C100.758 35.8365 101.222 35.7893 101.68 35.7062C102.232 35.5989 102.775 35.4539 103.307 35.2724L104.017 35.2561Z" fill="#A61C4B"/>
<path d="M109.293 40.0279C109.503 40.3144 109.603 40.6664 109.575 41.0202C109.576 41.5771 109.471 42.1291 109.266 42.6469C109.114 43.0614 108.865 43.4333 108.539 43.7314C108.292 43.936 107.982 44.049 107.661 44.0513C107.522 44.057 107.384 44.0301 107.258 43.9726C107.132 43.9151 107.021 43.8288 106.934 43.7205C106.723 43.4344 106.619 43.0831 106.641 42.7282C106.642 42.1809 106.751 41.6391 106.961 41.1341C107.105 40.7101 107.351 40.3283 107.677 40.0225C107.919 39.8147 108.226 39.6978 108.545 39.6917C108.687 39.6858 108.829 39.713 108.959 39.7714C109.088 39.8297 109.203 39.9176 109.293 40.0279V40.0279ZM106.414 38.8458C105.775 39.2014 105.242 39.7209 104.87 40.3509C104.498 40.9809 104.301 41.6985 104.299 42.43C104.284 42.835 104.357 43.2385 104.512 43.6128C104.667 43.9872 104.902 44.3235 105.199 44.5989C105.875 45.1804 106.749 45.4794 107.639 45.434C108.397 45.4458 109.145 45.2589 109.808 44.8917C110.441 44.5186 110.965 43.9856 111.326 43.3464C111.712 42.7068 111.915 41.9733 111.912 41.2262C111.928 40.8228 111.851 40.4211 111.686 40.0525C111.522 39.6838 111.274 39.3581 110.963 39.1007C110.295 38.559 109.453 38.2777 108.594 38.309C107.827 38.2962 107.07 38.483 106.397 38.8512" fill="#A61C4B"/>
<path d="M118.05 40.5484C117.88 41.4822 117.496 42.3638 116.928 43.124C116.808 43.3211 116.646 43.4885 116.452 43.6134C116.259 43.7384 116.039 43.8176 115.811 43.8452C115.703 43.8446 115.598 43.8175 115.503 43.7664C115.408 43.7154 115.328 43.6419 115.268 43.5524C115.114 43.3105 115.042 43.0253 115.062 42.7391C115.061 42.1923 115.174 41.6512 115.393 41.1503C115.552 40.7207 115.817 40.3383 116.163 40.0387C116.413 39.8247 116.729 39.7023 117.058 39.6917C117.245 39.693 117.431 39.7356 117.6 39.8164C117.799 39.9128 117.982 40.039 118.142 40.1905L118.072 40.5484H118.05ZM118.614 39.0519C118.327 38.8028 118.001 38.6031 117.649 38.4608C117.329 38.3452 116.991 38.2883 116.651 38.2927C115.95 38.2917 115.264 38.4952 114.677 38.8783C114.05 39.2813 113.539 39.8424 113.197 40.5051C112.833 41.2106 112.647 41.9941 112.655 42.7879C112.631 43.4854 112.884 44.164 113.36 44.6748C113.578 44.9176 113.846 45.1103 114.145 45.2394C114.445 45.3686 114.769 45.4313 115.095 45.4231C115.378 45.4242 115.659 45.384 115.93 45.3038C116.194 45.2312 116.447 45.1197 116.678 44.9731C116.933 44.7972 117.166 44.5915 117.372 44.3603C117.313 44.7587 117.2 45.1473 117.036 45.5153C116.841 45.9443 116.54 46.3173 116.163 46.5998C115.843 46.8602 115.443 47.0037 115.03 47.0065C114.842 47.0078 114.657 46.967 114.488 46.8872C114.287 46.7716 114.112 46.6167 113.972 46.4317C113.841 46.2461 113.673 46.0892 113.479 45.9708C113.336 45.8944 113.175 45.8552 113.013 45.8569C112.741 45.8507 112.478 45.952 112.281 46.1389C112.186 46.23 112.112 46.3397 112.063 46.4611C112.013 46.5824 111.99 46.7128 111.993 46.8438C111.992 47.1142 112.088 47.3761 112.264 47.5812C112.507 47.8532 112.821 48.0522 113.17 48.156C113.67 48.3203 114.195 48.3974 114.721 48.3837C115.287 48.3863 115.851 48.3097 116.396 48.156C116.882 48.0197 117.34 47.8015 117.752 47.5107C118.108 47.2619 118.416 46.9516 118.663 46.5943C118.905 46.2217 119.088 45.8138 119.205 45.3852C119.265 45.1466 119.357 44.7562 119.471 44.2139L120.62 38.4662H119.037L118.614 39.0519Z" fill="#A61C4B"/>
<path d="M123.011 40.2068H121.52L121.878 38.8892C122.883 38.8204 123.875 38.6199 124.828 38.2927H125.598L124.568 42.8258C124.513 43.0356 124.477 43.2497 124.459 43.4657C124.457 43.5157 124.468 43.5654 124.491 43.6101C124.514 43.6547 124.548 43.6927 124.589 43.7205C124.697 43.781 124.819 43.8092 124.942 43.8018C125.178 43.7894 125.402 43.6955 125.576 43.5362C125.966 43.1957 126.278 42.776 126.493 42.3053C126.801 41.6502 127.029 40.9602 127.17 40.2502L127.593 38.4662H129.762L128.282 44.7616C128.093 45.8271 127.527 46.7892 126.688 47.4728C125.736 48.1377 124.594 48.4746 123.434 48.4325C122.711 48.4823 121.989 48.3183 121.358 47.9608C121.16 47.8542 120.992 47.6985 120.872 47.5086C120.751 47.3187 120.681 47.101 120.669 46.8763C120.667 46.7415 120.694 46.6078 120.749 46.4843C120.803 46.3609 120.883 46.2505 120.984 46.1606C121.081 46.0654 121.196 45.9906 121.323 45.9403C121.45 45.8901 121.585 45.8654 121.721 45.8678C121.9 45.8661 122.077 45.9089 122.236 45.9925C122.421 46.1211 122.584 46.2785 122.719 46.4588C122.869 46.6426 123.053 46.7954 123.261 46.9089C123.445 46.99 123.645 47.0307 123.847 47.0282C124.123 47.028 124.397 46.9689 124.649 46.8546C124.928 46.7379 125.179 46.5643 125.386 46.3449C125.61 46.1093 125.794 45.8381 125.929 45.5424C126.104 45.158 126.224 44.751 126.287 44.3332C126.095 44.5801 125.869 44.7976 125.614 44.9785C125.399 45.1298 125.161 45.2451 124.909 45.3201C124.641 45.4026 124.361 45.4429 124.08 45.4394C123.757 45.4535 123.436 45.3844 123.147 45.2388C122.892 45.1001 122.68 44.8937 122.534 44.6423C122.385 44.4012 122.304 44.1236 122.301 43.8398C122.312 43.5138 122.359 43.1901 122.442 42.8746L123.011 40.2068Z" fill="#A61C4B"/>
<path d="M129.73 47.8468L129.302 46.9521C129.693 46.7976 130.067 46.6032 130.419 46.3719C130.685 46.2003 130.924 45.9902 131.129 45.7483C131.273 45.5592 131.383 45.3464 131.454 45.1193C131.362 45.1708 131.266 45.2144 131.167 45.2495C131.086 45.2765 131.002 45.2911 130.917 45.2928C130.789 45.2919 130.663 45.2634 130.547 45.2091C130.431 45.1548 130.328 45.0761 130.245 44.9783C130.052 44.7645 129.948 44.4855 129.952 44.1975C129.95 44.025 129.985 43.8541 130.054 43.6961C130.123 43.5381 130.225 43.3966 130.353 43.2811C130.618 43.0317 130.971 42.8972 131.335 42.907C131.61 42.9039 131.88 42.9771 132.116 43.1185C132.361 43.2629 132.56 43.4734 132.69 43.7258C132.833 43.9966 132.908 44.2981 132.907 44.6042C132.896 45.0267 132.776 45.4392 132.56 45.8025C132.305 46.2419 131.964 46.6254 131.557 46.9304C131.001 47.3315 130.384 47.6409 129.73 47.8468" fill="#A61C4B"/>
<path d="M140.575 35.7551H145.276L144.994 37.0782H144.647C144.452 37.0658 144.258 37.0897 144.072 37.1487C143.965 37.2022 143.873 37.2825 143.806 37.3818C143.721 37.5893 143.659 37.8058 143.622 38.0271L142.434 43.3464C142.396 43.457 142.371 43.5716 142.359 43.688C142.359 43.7429 142.376 43.7965 142.406 43.8419C142.437 43.8873 142.481 43.9224 142.532 43.9429C142.708 43.9913 142.892 44.0097 143.074 43.9971H143.492L143.183 45.3202H138.498L138.807 43.9971H139.154C139.338 44.0087 139.522 43.9847 139.696 43.9266C139.801 43.8865 139.891 43.8168 139.956 43.726C140.043 43.5279 140.107 43.3205 140.146 43.1078L141.317 37.897C141.351 37.7655 141.373 37.6312 141.383 37.4957C141.387 37.437 141.377 37.3781 141.353 37.3242C141.33 37.2703 141.293 37.223 141.247 37.1866C141.065 37.1126 140.868 37.0829 140.672 37.0999H140.255L140.575 35.7551Z" fill="#A61C4B"/>
<path d="M144.885 45.293L146.035 40.1851H144.983L145.265 38.8621C146.164 38.8119 147.05 38.6197 147.889 38.2927H148.534L148.231 39.6266C148.47 39.3278 148.749 39.0633 149.06 38.8404C149.307 38.6644 149.58 38.5273 149.868 38.4337C150.143 38.3408 150.43 38.2932 150.72 38.2927C150.964 38.2829 151.208 38.3231 151.436 38.4107C151.665 38.4984 151.873 38.6316 152.048 38.8024C152.22 38.9558 152.357 39.1439 152.45 39.3542C152.544 39.5645 152.591 39.7923 152.59 40.0224C152.599 40.1398 152.599 40.2576 152.59 40.3749C152.59 40.4291 152.542 40.5972 152.487 40.8629L151.983 43.0318C151.935 43.2265 151.899 43.4239 151.875 43.6229C151.873 43.6574 151.878 43.6919 151.891 43.7238C151.905 43.7557 151.925 43.7843 151.951 43.8072C152.008 43.8554 152.082 43.8805 152.157 43.8777C152.324 43.8554 152.486 43.7986 152.63 43.7108C152.775 43.6231 152.9 43.5064 152.997 43.368L153.718 44.2736C153.372 44.6348 152.964 44.9321 152.514 45.152C152.166 45.3177 151.784 45.4029 151.397 45.4014C151.167 45.4159 150.937 45.3824 150.72 45.3031C150.504 45.2238 150.306 45.1003 150.14 44.9405C150.004 44.8124 149.895 44.6589 149.818 44.4886C149.742 44.3183 149.7 44.1347 149.695 43.9482C149.711 43.6127 149.764 43.28 149.852 42.9559L150.324 40.8629C150.363 40.7011 150.387 40.5358 150.394 40.3695C150.398 40.3127 150.388 40.256 150.367 40.2035C150.345 40.1509 150.312 40.1039 150.27 40.0658C150.171 39.9802 150.042 39.9373 149.912 39.9465C149.747 39.9428 149.584 39.984 149.44 40.0658C149.12 40.2769 148.844 40.5475 148.627 40.8629C148.334 41.2608 148.097 41.6968 147.922 42.1588C147.672 42.8513 147.47 43.5596 147.314 44.279L147.081 45.2875L144.885 45.293Z" fill="#A61C4B"/>
<path d="M160.317 42.9993L161.082 44.0349C160.021 44.9134 158.696 45.4099 157.319 45.4447C156.483 45.4865 155.664 45.1961 155.041 44.6368C154.762 44.3687 154.542 44.0447 154.396 43.6859C154.251 43.3271 154.182 42.9417 154.195 42.5546C154.204 41.8215 154.414 41.1048 154.803 40.4833C155.241 39.8204 155.836 39.2757 156.535 38.8974C157.234 38.5191 158.015 38.3189 158.81 38.3144C159.498 38.2787 160.177 38.4796 160.735 38.8837C160.947 39.0358 161.122 39.2347 161.245 39.4651C161.368 39.6955 161.437 39.9511 161.445 40.2122C161.455 40.3673 161.433 40.5227 161.381 40.6691C161.329 40.8155 161.247 40.9496 161.142 41.0635C160.966 41.2303 160.743 41.3371 160.503 41.3682C160.263 41.3994 160.02 41.3535 159.808 41.237C159.65 41.1437 159.518 41.0134 159.423 40.8574C159.346 40.7259 159.291 40.5832 159.26 40.4345C159.227 40.277 159.17 40.1253 159.092 39.9844C159.03 39.9027 158.95 39.836 158.859 39.7892C158.76 39.7383 158.65 39.7105 158.539 39.7079C158.257 39.7246 157.989 39.8375 157.78 40.0278C157.414 40.3414 157.124 40.7346 156.934 41.1774C156.711 41.6355 156.592 42.1373 156.587 42.6468C156.58 42.818 156.609 42.9887 156.672 43.1483C156.734 43.3078 156.829 43.4527 156.95 43.574C157.075 43.6977 157.225 43.7938 157.389 43.8564C157.553 43.919 157.729 43.9465 157.904 43.9373C158.277 43.9252 158.644 43.8462 158.989 43.7042C159.453 43.5349 159.892 43.3052 160.296 43.021" fill="#A61C4B"/>
<path d="M164.785 42.8801C164.996 42.8835 165.202 42.9374 165.387 43.0373C165.574 43.1427 165.731 43.2939 165.843 43.4765C165.945 43.6548 165.999 43.8566 166 44.0622C165.988 44.3067 165.916 44.5446 165.792 44.7552C165.667 44.9659 165.493 45.1431 165.284 45.2713C165.066 45.3877 164.821 45.4473 164.574 45.4449C164.257 45.46 163.947 45.3489 163.712 45.1358C163.603 45.0255 163.519 44.8939 163.463 44.7492C163.408 44.6045 163.384 44.4499 163.392 44.2953C163.391 44.0524 163.452 43.8133 163.571 43.6013C163.692 43.3693 163.881 43.1801 164.113 43.059C164.321 42.9332 164.559 42.864 164.802 42.8584" fill="#A61C4B"/>
<path d="M0 26.537H60.1881V0H0V26.537ZM59.5158 25.908H0.677794V0.623568H59.5158V25.908Z" fill="#A61C4B"/>
<path d="M56.0673 3.44873H4.12109V23.0614H56.0673V3.44873Z" fill="#A61C4B"/>
<path d="M15.9742 8.35052L14.7108 12.7589H15.0904C15.8549 12.8096 16.6202 12.6718 17.319 12.3577C17.8484 12.014 18.2622 11.519 18.5065 10.937H18.8101L17.5196 15.3562H17.2485C17.2925 15.1182 17.3179 14.877 17.3244 14.635C17.3355 14.3571 17.236 14.0861 17.0479 13.8813C16.8567 13.6788 16.6124 13.5342 16.3429 13.4638C15.9513 13.393 15.5532 13.3639 15.1554 13.3771H14.5102L13.4257 17.1727C13.3464 17.4133 13.2973 17.6629 13.2793 17.9156C13.2802 17.9801 13.2982 18.0433 13.3315 18.0986C13.3649 18.1538 13.4124 18.1992 13.4691 18.2301C13.7858 18.3699 14.1327 18.4277 14.4777 18.3981C15.4159 18.4058 16.3435 18.198 17.1888 17.7908C18.0717 17.3543 18.846 16.7264 19.4554 15.9527H19.797L18.6041 19.0868H8.88721L8.98481 18.7777C9.42632 18.8156 9.86723 18.6986 10.2319 18.4469C10.5978 18.0512 10.8457 17.561 10.9477 17.0317L13.0787 9.7278C13.1823 9.41743 13.2443 9.09471 13.263 8.76805C13.2678 8.67352 13.2495 8.57925 13.2099 8.49331C13.1702 8.40738 13.1103 8.33234 13.0353 8.27462C12.7147 8.11852 12.3616 8.04048 12.0051 8.04687L12.0972 7.73779H21.1526L20.4206 10.5737H20.1223C20.1337 10.166 20.0443 9.76187 19.8621 9.39705C19.6344 9.04757 19.3079 8.77384 18.924 8.6108C18.3162 8.41016 17.6761 8.32556 17.037 8.36138L15.9742 8.35052Z" fill="#9B1D46"/>
<path d="M25.8756 9.27783L25.2032 11.5498H26.2877L25.984 12.515H24.8995L23.4951 17.3951C23.4257 17.6189 23.382 17.85 23.365 18.0837C23.3632 18.119 23.369 18.1542 23.3821 18.187C23.3952 18.2197 23.4153 18.2493 23.4409 18.2735C23.4611 18.2987 23.4867 18.3191 23.5158 18.3332C23.5449 18.3473 23.5767 18.3547 23.609 18.3548C23.7168 18.3471 23.8193 18.3054 23.9018 18.2356C24.2476 17.9385 24.5489 17.5934 24.7965 17.2107L25.0893 17.3951C24.7825 17.979 24.3445 18.4838 23.8096 18.87C23.4161 19.1611 22.9433 19.3256 22.4541 19.3417C22.1311 19.3616 21.8128 19.2568 21.5648 19.0489C21.4627 18.9568 21.3818 18.8436 21.3275 18.7173C21.2732 18.5909 21.2469 18.4544 21.2503 18.3169C21.2686 17.8953 21.3415 17.478 21.4672 17.0752L22.7902 12.5367H21.6516L21.8576 11.8968C22.5006 11.6739 23.11 11.3637 23.6687 10.975C24.3168 10.4721 24.911 9.90337 25.4418 9.27783H25.8756Z" fill="#9B1D46"/>
<path d="M29.7579 11.3164L28.4999 16.0284C29.5338 13.733 30.3146 12.3195 30.8424 11.7881C30.9637 11.6477 31.1123 11.5335 31.2791 11.4524C31.446 11.3713 31.6276 11.325 31.813 11.3164C31.9177 11.3162 32.021 11.34 32.115 11.3861C32.2091 11.4322 32.2912 11.4992 32.3552 11.5821C32.515 11.787 32.5923 12.0442 32.5721 12.3033C32.5906 12.787 32.4538 13.264 32.1817 13.6643C32.126 13.7621 32.0477 13.8451 31.9534 13.9064C31.859 13.9677 31.7514 14.0055 31.6395 14.0167C31.5339 14.0191 31.43 13.9906 31.3404 13.9347C31.2508 13.8789 31.1795 13.7981 31.1352 13.7022C31.073 13.5735 30.9946 13.4533 30.902 13.3444C30.8623 13.3112 30.8127 13.2921 30.761 13.2902C30.6955 13.2893 30.6313 13.3082 30.5767 13.3444C30.3907 13.4761 30.2292 13.6395 30.0995 13.827C29.8116 14.2345 29.5663 14.6706 29.3675 15.1283C29.0747 15.741 28.8253 16.2562 28.6897 16.6737C28.418 17.4645 28.1917 18.2701 28.0119 19.0867H25.9785L27.3775 13.5233C27.4516 13.2553 27.5024 12.9813 27.5293 12.7045C27.532 12.5827 27.506 12.462 27.4534 12.3521C27.3987 12.2683 27.319 12.2038 27.2257 12.1677C27.0385 12.1169 26.8444 12.0968 26.6509 12.1081L26.7376 11.8966L29.2699 11.3544L29.7579 11.3164Z" fill="#9B1D46"/>
<path d="M38.0107 11.3165C38.4458 11.3132 38.8747 11.4195 39.2579 11.6256C39.6321 11.8123 39.9419 12.107 40.1471 12.4714C40.34 12.8451 40.4386 13.2602 40.4345 13.6806C40.4224 14.6344 40.1627 15.5687 39.6808 16.3918C39.2072 17.2735 38.5167 18.02 37.6745 18.5608C36.9355 19.0554 36.0694 19.3265 35.1802 19.3416C34.8552 19.3601 34.53 19.3093 34.2261 19.1924C33.9223 19.0756 33.6468 18.8954 33.418 18.6638C33.0038 18.2123 32.782 17.617 32.7998 17.0045C32.7942 16.2567 32.9515 15.5166 33.2607 14.8356C33.5518 14.182 33.9515 13.5825 34.4428 13.0625C34.9103 12.5618 35.4606 12.1454 36.0695 11.8316C36.6643 11.5222 37.324 11.3587 37.9944 11.3544L38.0107 11.3165ZM37.6528 11.7991C37.3835 11.7885 37.1207 11.8838 36.9208 12.0648C36.525 12.4118 36.0858 13.2306 35.5923 14.5319C35.1411 15.6427 34.8931 16.8255 34.8603 18.0239C34.8509 18.2579 34.9348 18.4861 35.0935 18.6584C35.161 18.7364 35.2442 18.7994 35.3376 18.8433C35.431 18.8872 35.5325 18.911 35.6357 18.9132C35.8458 18.9113 36.0495 18.8408 36.2159 18.7126C36.5942 18.3179 36.8991 17.8588 37.116 17.357C37.4869 16.6171 37.7812 15.8413 37.9944 15.0416C38.2091 14.2826 38.324 13.4988 38.3361 12.71C38.3533 12.4681 38.2798 12.2284 38.13 12.0377C38.0709 11.9648 37.9966 11.9057 37.9123 11.8645C37.828 11.8233 37.7358 11.801 37.642 11.7991" fill="#9B1D46"/>
<path d="M45.5045 11.3167L44.4688 14.9117C44.9428 14.1563 45.4644 13.4318 46.0305 12.7427C46.4086 12.2977 46.853 11.9136 47.3481 11.604C47.6622 11.4172 48.0185 11.3127 48.3838 11.3004C48.5244 11.2985 48.6639 11.3265 48.7929 11.3826C48.9219 11.4387 49.0375 11.5216 49.1321 11.6257C49.3407 11.8571 49.4514 12.1603 49.4411 12.4716C49.4261 12.8567 49.3586 13.238 49.2405 13.6049L48.156 17.1836C48.0891 17.3822 48.0455 17.5878 48.0259 17.7964C48.0247 17.8244 48.0293 17.8525 48.0396 17.8786C48.0499 17.9048 48.0655 17.9285 48.0855 17.9482C48.1019 17.9671 48.1218 17.9825 48.1441 17.9937C48.1665 18.0049 48.1908 18.0115 48.2157 18.0133C48.2806 18.0106 48.3431 17.9879 48.3946 17.9482C48.6228 17.7474 48.8218 17.5156 48.9857 17.2596C49.0399 17.1782 49.1158 17.0589 49.2297 16.9071L49.5496 17.1023C48.7254 18.4796 47.8614 19.1682 46.9577 19.1682C46.663 19.1833 46.3733 19.0886 46.1443 18.9025C46.0518 18.817 45.9783 18.7129 45.9288 18.597C45.8793 18.4812 45.8548 18.3561 45.857 18.2302C45.8753 17.8742 45.941 17.5223 46.0522 17.1836L47.1041 13.6049C47.1621 13.4385 47.1986 13.2654 47.2125 13.0898C47.2117 13.0581 47.2045 13.0269 47.1915 12.9981C47.1785 12.9692 47.1598 12.9433 47.1366 12.9217C47.0873 12.8775 47.0239 12.8525 46.9577 12.8512C46.6572 12.8984 46.3838 13.0524 46.1877 13.285C45.2602 14.2494 44.503 15.3641 43.9483 16.5818L43.2651 19.0706H41.1287L42.6903 13.6862C42.8138 13.3215 42.8903 12.9425 42.918 12.5584C42.9204 12.4725 42.8978 12.3877 42.853 12.3144C42.7967 12.2464 42.721 12.1972 42.6361 12.1734C42.4497 12.1291 42.2581 12.1109 42.0667 12.1192L42.1589 11.7938L44.9785 11.3004L45.5045 11.3167Z" fill="#9B1D46"/>
<path d="M15.9742 8.35052L14.7108 12.7589H15.0904C15.8549 12.8096 16.6202 12.6718 17.319 12.3577C17.8484 12.014 18.2622 11.519 18.5065 10.937H18.8101L17.5196 15.3562H17.2485C17.2925 15.1182 17.3179 14.877 17.3244 14.635C17.3355 14.3571 17.236 14.0861 17.0479 13.8813C16.8567 13.6788 16.6124 13.5342 16.3429 13.4638C15.9513 13.393 15.5532 13.3639 15.1554 13.3771H14.5102L13.4257 17.1727C13.3464 17.4133 13.2973 17.6629 13.2793 17.9156C13.2802 17.9801 13.2982 18.0433 13.3315 18.0986C13.3649 18.1538 13.4124 18.1992 13.4691 18.2301C13.7858 18.3699 14.1327 18.4277 14.4777 18.3981C15.4159 18.4058 16.3435 18.198 17.1888 17.7908C18.0717 17.3543 18.846 16.7264 19.4554 15.9527H19.797L18.6041 19.0868H8.88721L8.98481 18.7777C9.42632 18.8156 9.86723 18.6986 10.2319 18.4469C10.5978 18.0512 10.8457 17.561 10.9477 17.0317L13.0787 9.7278C13.1823 9.41743 13.2443 9.09471 13.263 8.76805C13.2678 8.67352 13.2495 8.57925 13.2099 8.49331C13.1702 8.40738 13.1103 8.33234 13.0353 8.27462C12.7147 8.11852 12.3616 8.04048 12.0051 8.04687L12.0972 7.73779H21.1526L20.4206 10.5737H20.1223C20.1337 10.166 20.0443 9.76187 19.8621 9.39705C19.6344 9.04757 19.3079 8.77384 18.924 8.6108C18.3162 8.41016 17.6761 8.32556 17.037 8.36138L15.9742 8.35052Z" fill="white"/>
<path d="M25.8756 9.27783L25.2032 11.5498H26.2877L25.984 12.515H24.8995L23.4951 17.3951C23.4257 17.6189 23.382 17.85 23.365 18.0837C23.3632 18.119 23.369 18.1542 23.3821 18.187C23.3952 18.2197 23.4153 18.2493 23.4409 18.2735C23.4611 18.2987 23.4867 18.3191 23.5158 18.3332C23.5449 18.3473 23.5767 18.3547 23.609 18.3548C23.7168 18.3471 23.8193 18.3054 23.9018 18.2356C24.2476 17.9385 24.5489 17.5934 24.7965 17.2107L25.0893 17.3951C24.7825 17.979 24.3445 18.4838 23.8096 18.87C23.4161 19.1611 22.9433 19.3256 22.4541 19.3417C22.1311 19.3616 21.8128 19.2568 21.5648 19.0489C21.4627 18.9568 21.3818 18.8436 21.3275 18.7173C21.2732 18.5909 21.2469 18.4544 21.2503 18.3169C21.2686 17.8953 21.3415 17.478 21.4672 17.0752L22.7902 12.5367H21.6516L21.8576 11.8968C22.5006 11.6739 23.11 11.3637 23.6687 10.975C24.3168 10.4721 24.911 9.90337 25.4418 9.27783H25.8756Z" fill="white"/>
<path d="M29.7579 11.3164L28.4999 16.0284C29.5338 13.733 30.3146 12.3195 30.8424 11.7881C30.9637 11.6477 31.1123 11.5335 31.2791 11.4524C31.446 11.3713 31.6276 11.325 31.813 11.3164C31.9177 11.3162 32.021 11.34 32.115 11.3861C32.2091 11.4322 32.2912 11.4992 32.3552 11.5821C32.515 11.787 32.5923 12.0442 32.5721 12.3033C32.5906 12.787 32.4538 13.264 32.1817 13.6643C32.126 13.7621 32.0477 13.8451 31.9534 13.9064C31.859 13.9677 31.7514 14.0055 31.6395 14.0167C31.5339 14.0191 31.43 13.9906 31.3404 13.9347C31.2508 13.8789 31.1795 13.7981 31.1352 13.7022C31.073 13.5735 30.9946 13.4533 30.902 13.3444C30.8623 13.3112 30.8127 13.2921 30.761 13.2902C30.6955 13.2893 30.6313 13.3082 30.5767 13.3444C30.3907 13.4761 30.2292 13.6395 30.0995 13.827C29.8116 14.2345 29.5663 14.6706 29.3675 15.1283C29.0747 15.741 28.8253 16.2562 28.6897 16.6737C28.418 17.4645 28.1917 18.2701 28.0119 19.0867H25.9785L27.3775 13.5233C27.4516 13.2553 27.5024 12.9813 27.5293 12.7045C27.532 12.5827 27.506 12.462 27.4534 12.3521C27.3987 12.2683 27.319 12.2038 27.2257 12.1677C27.0385 12.1169 26.8444 12.0968 26.6509 12.1081L26.7376 11.8966L29.2699 11.3544L29.7579 11.3164Z" fill="white"/>
<path d="M38.0107 11.3165C38.4458 11.3132 38.8747 11.4195 39.2579 11.6256C39.6321 11.8123 39.9419 12.107 40.1471 12.4714C40.34 12.8451 40.4386 13.2602 40.4345 13.6806C40.4224 14.6344 40.1627 15.5687 39.6808 16.3918C39.2072 17.2735 38.5167 18.02 37.6745 18.5608C36.9355 19.0554 36.0694 19.3265 35.1802 19.3416C34.8552 19.3601 34.53 19.3093 34.2261 19.1924C33.9223 19.0756 33.6468 18.8954 33.418 18.6638C33.0038 18.2123 32.782 17.617 32.7998 17.0045C32.7942 16.2567 32.9515 15.5166 33.2607 14.8356C33.5518 14.182 33.9515 13.5825 34.4428 13.0625C34.9103 12.5618 35.4606 12.1454 36.0695 11.8316C36.6643 11.5222 37.324 11.3587 37.9944 11.3544L38.0107 11.3165ZM37.6528 11.7991C37.3835 11.7885 37.1207 11.8838 36.9208 12.0648C36.525 12.4118 36.0858 13.2306 35.5923 14.5319C35.1411 15.6427 34.8931 16.8255 34.8603 18.0239C34.8509 18.2579 34.9348 18.4861 35.0935 18.6584C35.161 18.7364 35.2442 18.7994 35.3376 18.8433C35.431 18.8872 35.5325 18.911 35.6357 18.9132C35.8458 18.9113 36.0495 18.8408 36.2159 18.7126C36.5942 18.3179 36.8991 17.8588 37.116 17.357C37.4869 16.6171 37.7812 15.8413 37.9944 15.0416C38.2091 14.2826 38.324 13.4988 38.3361 12.71C38.3533 12.4681 38.2798 12.2284 38.13 12.0377C38.0709 11.9648 37.9966 11.9057 37.9123 11.8645C37.828 11.8233 37.7358 11.801 37.642 11.7991" fill="white"/>
<path d="M45.5045 11.3167L44.4688 14.9117C44.9428 14.1563 45.4644 13.4318 46.0305 12.7427C46.4086 12.2977 46.853 11.9136 47.3481 11.604C47.6622 11.4172 48.0185 11.3127 48.3838 11.3004C48.5244 11.2985 48.6639 11.3265 48.7929 11.3826C48.9219 11.4387 49.0375 11.5216 49.1321 11.6257C49.3407 11.8571 49.4514 12.1603 49.4411 12.4716C49.4261 12.8567 49.3586 13.238 49.2405 13.6049L48.156 17.1836C48.0891 17.3822 48.0455 17.5878 48.0259 17.7964C48.0247 17.8244 48.0293 17.8525 48.0396 17.8786C48.0499 17.9048 48.0655 17.9285 48.0855 17.9482C48.1019 17.9671 48.1218 17.9825 48.1441 17.9937C48.1665 18.0049 48.1908 18.0115 48.2157 18.0133C48.2806 18.0106 48.3431 17.9879 48.3946 17.9482C48.6228 17.7474 48.8218 17.5156 48.9857 17.2596C49.0399 17.1782 49.1158 17.0589 49.2297 16.9071L49.5496 17.1023C48.7254 18.4796 47.8614 19.1682 46.9577 19.1682C46.663 19.1833 46.3733 19.0886 46.1443 18.9025C46.0518 18.817 45.9783 18.7129 45.9288 18.597C45.8793 18.4812 45.8548 18.3561 45.857 18.2302C45.8753 17.8742 45.941 17.5223 46.0522 17.1836L47.1041 13.6049C47.1621 13.4385 47.1986 13.2654 47.2125 13.0898C47.2117 13.0581 47.2045 13.0269 47.1915 12.9981C47.1785 12.9692 47.1598 12.9433 47.1366 12.9217C47.0873 12.8775 47.0239 12.8525 46.9577 12.8512C46.6572 12.8984 46.3838 13.0524 46.1877 13.285C45.2602 14.2494 44.503 15.3641 43.9483 16.5818L43.2651 19.0706H41.1287L42.6903 13.6862C42.8138 13.3215 42.8903 12.9425 42.918 12.5584C42.9204 12.4725 42.8978 12.3877 42.853 12.3144C42.7967 12.2464 42.721 12.1972 42.6361 12.1734C42.4497 12.1291 42.2581 12.1109 42.0667 12.1192L42.1589 11.7938L44.9785 11.3004L45.5045 11.3167Z" fill="white"/>
</g>
<defs>
<clipPath id="clip0_295_1182">
<rect width="166" height="48.4271" fill="white"/>
</clipPath>
</defs>
</svg>
