<?xml version="1.0" encoding="utf-8"?>
<svg version="1.1" id="layer1" xmlns="http://www.w3.org/2000/svg" x="0px" y="0px"
     viewBox="0 0 82 65" width="82px" height="65px" xml:space="preserve">
<style type="text/css">
  .st0{fill:#FFFFFF;}
</style>
<g id="XMLID_5966_">
  <g id="XMLID_5669_">
    <path id="XMLID_5674_" class="st0" d="M42.6,21.8c-2.1,0.6-3.8,1.3-5.5,2.3l0,0c-5,2.4-8.7,7-10,12.4c0.7,0.7,1.5,1.3,2.3,1.8
      c2,0.7,4.2,1.1,6.4,1.1c6.4,0,12.2-3.1,15.7-8.3C46.7,30.4,43.1,26.6,42.6,21.8z"/>
    <path id="XMLID_5673_" class="st0" d="M61.6,24.3c0-0.1,0.1-0.2,0.1-0.3l0-0.2c0-0.2,0.1-0.4,0.1-0.6l0-0.1c0-1.7-1.4-3.1-3.1-3.1
      c-1.5,0-2.8,1.1-3,2.7l0,0.1c-0.1,0.5-0.1,1-0.2,1.5c-0.4,2-1,3.9-2,5.6c2.1-0.1,4.1-0.9,5.7-2.3c1-0.9,1.8-2,2.3-3.1
      C61.6,24.4,61.6,24.3,61.6,24.3z"/>
    <path id="XMLID_5672_" class="st0" d="M53.1,31.3c-0.1,0-0.2,0-0.3,0c-3.7,5.9-10.1,9.5-17.1,9.5c-0.7,0-1.4,0-2.1-0.1
      c2.4,0.9,4.9,1.4,7.6,1.4c8.4,0,15.9-5,19.2-12.7c0.2-0.5,0.4-1,0.6-1.6c-0.2,0.3-0.5,0.5-0.8,0.8C58.1,30.3,55.7,31.3,53.1,31.3z"/>
    <path id="XMLID_5671_" class="st0" d="M45.2,10.8c0-1-0.2-1.9-0.5-2.9c-1.1-3.3-3.8-5.6-7.2-6.2c-0.9-0.1-1.8-0.1-2.8-0.1
      c-0.9,0.1-1.7,0.3-2.5,0.7c-0.3,0.1-0.6,0.3-0.9,0.5c-6.8,3.6-11.1,10.7-11.1,18.4c0,5.4,2,10.4,5.7,14.3
      c1.5-5.4,5.4-10,10.5-12.5c1.9-1.1,3.8-1.9,6.1-2.5c0-2,0.6-3.9,1.7-5.5l0,0l0.1-0.3C44.9,13.4,45.2,12.1,45.2,10.8z"/>
    <path id="XMLID_5670_" class="st0" d="M49.8,19c4-1.2,6.5-4.4,6.5-8.2c0-2.7-1.3-5.2-3.5-6.8c-0.2-0.1-0.4-0.3-0.6-0.4
      c-3.3-2.1-7.2-3.2-11.2-3.2c-1,0-1.9,0.1-2.9,0.2C40,0.9,41.7,1.8,43,3c1.4,1.2,2.4,2.8,2.9,4.5c0.3,1.1,0.5,2.1,0.5,3.3
      c0,1.5-0.3,3-0.9,4.3l0,0c-0.1,0.1-0.1,0.3-0.2,0.4c-0.6,1.1-1.4,2.5-1.5,4.6c0.7-0.1,1.4-0.3,2.2-0.4
      C47.3,19.6,48.6,19.4,49.8,19z"/>
  </g>
  <g id="XMLID_5874_">
    <path id="XMLID_5896_" class="st0" d="M56.8,59c0,0.2-0.3,0.2-0.3,0l-2-7.2h-2.3l2.2,8c0.2,0.9,1.1,1.6,2,1.6h0.6
      c1,0,1.8-0.6,2-1.6l2.2-8h-2.3L56.8,59z"/>
    <polygon id="XMLID_5895_" class="st0" points="10.8,61.3 13.1,61.3 13.1,52.3 10.8,51.7"/>
    <rect id="XMLID_5894_" x="10.8" y="48.4" class="st0" width="2.3" height="2.3"/>
    <polygon id="XMLID_5893_" class="st0" points="62.5,61.3 64.8,61.3 64.8,52.3 62.5,51.7"/>
    <rect id="XMLID_5892_" x="62.5" y="48.4" class="st0" width="2.3" height="2.3"/>
    <path id="XMLID_5891_" class="st0" d="M0.3,52.5v4.9c0,2.1,1.7,3.9,3.9,3.9h5v-5.8L6.9,55v4.3H4.7c-1.1,0-2-0.9-2-2v-4.6
      c0-1.1,0.9-2,2-2h4.5v-2h-5C2.1,48.6,0.3,50.4,0.3,52.5z"/>
    <path id="XMLID_5888_" class="st0" d="M48.2,51.7h-1.4c-1.9,0-3.4,1.5-3.4,3.4v2.8c0,1.9,1.5,3.4,3.4,3.4h3.6l0.6-2h-4.1
      c-0.6,0-1.1-0.5-1.1-1.1v-0.8h5.8v-2.1C51.5,53.4,50,51.7,48.2,51.7z M49.2,55.4h-3.4v-0.5c0-0.6,0.5-1.1,1.1-1.1h1.2
      c0.6,0,1.1,0.5,1.1,1.1V55.4z"/>
    <path id="XMLID_5885_" class="st0" d="M81.8,57.4v-2.3c0-1.9-1.5-3.4-3.4-3.4H77c-1.9,0-3.4,1.5-3.4,3.4v2.8
      c0,1.9,1.5,3.4,3.4,3.4h3.6l0.6-2h-4.1c-0.6,0-1.1-0.5-1.1-1.1v-0.8H81.8z M76,54.9c0-0.6,0.5-1.1,1.1-1.1h1.2
      c0.6,0,1.1,0.5,1.1,1.1v0.5H76V54.9z"/>
    <path id="XMLID_5882_" class="st0" d="M38.3,48.6h-5v12.7h5c2.2,0,4-1.8,4-4v-4.8C42.2,50.4,40.4,48.6,38.3,48.6z M39.9,57.2
      c0,1.1-0.9,2.1-2.1,2.1h-2.2v-8.7h2.2c1.1,0,2.1,0.9,2.1,2.1V57.2z"/>
    <path id="XMLID_5879_" class="st0" d="M14.5,55.1v2.8c0,1.9,1.5,3.4,3.4,3.4h2.2v0.6c0,0.6-0.5,1.1-1.1,1.1h-3.3l0.6,2H19
      c1.9,0,3.4-1.5,3.4-3.4v-9.9h-4.6C16,51.7,14.5,53.3,14.5,55.1z M20.1,53.7v5.6h-2.1c-0.6,0-1.1-0.5-1.1-1.1v-3.3
      c0-0.6,0.5-1.1,1.1-1.1H20.1z"/>
    <path id="XMLID_5876_" class="st0" d="M23.6,55.1v2.8c0,1.9,1.5,3.4,3.4,3.4h2.2h2.3v-2v-7.6H27C25.1,51.7,23.6,53.3,23.6,55.1z
       M29.2,53.7v5.6h-2.1c-0.6,0-1.1-0.5-1.1-1.1v-3.3c0-0.6,0.5-1.1,1.1-1.1H29.2z"/>
    <path id="XMLID_5875_" class="st0" d="M69.7,53.7h2.6l0.6-2h-3.2c-1.9,0-3.4,1.5-3.4,3.4v2.8c0,1.9,1.5,3.4,3.4,3.4h2.5h0.2l0.6-2
      h-3.1c-0.6,0-1.1-0.5-1.1-1.1v-3.3C68.6,54.2,69.1,53.7,69.7,53.7z"/>
  </g>
</g>
</svg>
