<svg clip-rule="evenodd" fill-rule="evenodd" stroke-linejoin="round" stroke-miterlimit="2" viewBox="45 150 470 100" xmlns="http://www.w3.org/2000/svg"><path d="m157.617 207.499v22.498c0 8.18 1.364 12.271 10.228 12.271v.683h-34.09v-.683c10.226 0 8.862-10.91 8.862-19.089v-23.865c0-8.182 2.047-25.226-8.182-25.226v-.68h32.727v.683c-8.865 0-9.545 5.454-9.545 13.636v17.728h2.047c12.953-12.954 15-15.684 15.68-17.045 6.818-10.909.683-13.636-3.408-13.636v-1.366h27.954v1.363c-4.774 0-13.637 6.819-19.091 10.907l-20.452 19.774c27.953 1.364 27.27 15.68 29.997 25.906 2.047 6.138 3.408 9.546 9.546 10.91v.683h-24.546c-3.408-20.452-5.454-37.496-17.727-35.452zm65.454 2.727c0 9.545 2.047 12.273 7.499 12.273v.683h-28.636v-.683c6.137 0 6.137-6.818 6.137-12.273v-25.226c0-6.818-1.363-10.226-6.818-10.226v-1.366h21.818zm-7.501-55.226c4.091 0 8.182 3.41 8.182 7.499 0 4.091-4.091 8.182-8.182 8.182s-8.182-4.091-8.182-8.182c.003-4.089 4.094-7.499 8.182-7.499zm38.179 24.545c4.774-6.818 8.182-6.818 13.637-6.818 14.319 0 14.997 9.543 14.997 18.408v19.091c0 9.545 1.364 12.273 6.821 12.273v.683h-27.953v-.683c5.454 0 5.454-4.091 5.454-12.273v-19.091c0-6.818.683-15.68-4.771-15.68-6.818 0-6.818 4.774-8.182 7.498v27.273c0 8.182 0 12.273 4.774 12.273v.683h-26.592v-.683c5.454 0 6.137-4.091 6.137-12.273v-25.226c0-6.818-1.363-10.226-7.498-10.226v-1.366h23.179v6.137zm142.494-6.137h10.231l-2.047 3.408h-8.182v30c0 15 8.865 13.636 12.273 10.226l.683 1.363c-8.182 6.135-13.639 4.774-15.683 4.774-8.182 0-12.956-5.454-12.956-12.272v-34.089h-8.862c6.818-2.727 18.408-11.589 23.182-18.408h1.361z"/><path d="m403.064 198.634c0-11.59 11.589-25.907 25.228-25.907 12.27 0 23.863 12.273 23.863 25.226 0 15-12.956 25.907-23.863 25.907-13.639 0-25.228-11.59-25.228-25.226zm33.407-1.364c0-15 0-23.862-8.179-23.862-8.865 0-8.182 11.589-8.182 23.862 0 15-.683 25.909 8.182 25.909 8.86.003 8.179-10.909 8.179-25.909z"/><path d="m471.243 179.545c5.452-6.818 8.865-6.818 14.317-6.818 13.636 0 15 9.543 15 18.408v19.091c0 9.545 1.363 12.273 6.818 12.273v.683h-27.953v-.683c4.771 0 4.771-4.091 4.771-12.273v-19.091c0-6.818.683-15.68-4.771-15.68-6.138 0-6.138 4.774-8.182 7.498v27.273c0 8.182.683 12.273 5.452 12.273v.683h-26.587v-.683c5.452 0 6.135-4.091 6.135-12.273v-25.226c0-6.818-1.364-10.226-7.499-10.226v-1.366h22.499zm-156.133 36.136c-1.361 2.046-3.407 8.181-11.589 8.181-9.546 0-17.047-8.181-17.047-25.226 0-13.636 8.865-25.906 19.774-25.906 7.499 0 10.226 6.135 10.226 6.135v-4.774h23.182v.683s-8.182-1.364-8.182 8.862v38.865c-.683 10.226-4.774 17.044-23.865 22.499v-1.364c10.914-7.504 8.868-18.41 7.501-27.955zm1.367-19.091c0-11.59-.683-22.499-8.182-22.499-5.452 0-6.818 8.862-6.818 24.543 0 13.636 1.363 22.498 6.818 22.498 4.774 0 8.182-10.225 8.182-20.454z"/><path d="m334.201 207.499h7.499c-.683 15.683 10.226 15.683 12.956 15.683 4.771 0 9.543-4.091 9.543-8.185 0-12.272-27.273-7.498-27.273-26.589 0-8.863 6.821-15.681 17.047-15.681 16.361 0 18.408 9.543 18.408 12.954h-6.138c.683-2.728-.681-12.273-10.907-12.273-8.865 0-8.181 6.818-8.181 7.499 0 12.272 29.316 7.498 29.316 25.909 0 8.862-8.181 16.363-18.407 17.044-18.406.683-23.863-12.27-23.863-16.361zm-117.267 21.818h-5.452v13.634h-2.73v-13.634h-4.771v-2.044h12.953zm27.953-2.044v2.044h-9.545v4.771h8.864v1.364h-8.864v5.455h9.545v2.044h-11.59v-15.678zm23.862-.683c2.047 0 4.091.683 4.772 1.361 1.363 1.363 2.047 2.727 2.047 4.091h-2.047c0-1.364-.681-2.045-1.364-2.728-.68-.683-2.044-.683-3.408-.683-1.363 0-2.727.683-3.407 1.364-1.364 1.361-1.364 2.727-1.364 5.452 0 1.363 0 2.727 1.364 4.091.683 1.369 2.046 1.369 3.407 1.369 2.047 0 2.728 0 4.091-1.364 0-.683.681-1.364.681-2.727h2.047c0 2.044-.684 3.407-2.047 4.091-.681 1.361-2.727 2.044-4.772 2.044-2.044 0-3.407-.683-4.771-1.361-1.364-1.364-2.727-4.091-2.727-6.821 0-2.044.683-4.091 2.046-5.452 1.361-2.044 3.408-2.727 5.452-2.727zm25.909.683v6.135h8.865v-6.135h2.045v15.678h-2.045v-7.499h-8.865v7.499h-2.046v-15.678zm40.226 0 8.182 12.27v-12.27h2.044v15.678h-2.044l-8.182-12.954v12.954h-2.044v-15.678zm32.725 12.27c-.683-1.364-1.364-2.727-1.364-4.091 0-2.727.684-4.091 1.364-5.452 1.364-.683 2.727-1.364 4.091-1.364 2.044 0 3.408.683 4.091 1.364 1.364 1.361 1.364 2.727 1.364 4.771 0 1.364 0 3.408-1.364 4.774-.683.684-2.047 2.047-4.091 2.047s-3.408-.685-4.091-2.049zm-2.044-10.226c-1.364 2.044-1.364 3.408-1.364 5.452 0 2.73.683 4.774 1.364 6.138 1.361 1.361 3.408 2.044 6.135 2.044s4.774-.683 6.135-2.728c1.364-1.363 2.047-3.407 2.047-5.454 0-2.044-.683-4.091-2.047-5.452-1.361-1.364-3.408-2.727-6.135-2.727s-4.771 1.361-6.135 2.727zm34.771-2.044v13.634h8.182v2.044h-10.226v-15.678zm28.634 12.27c-.68-1.364-1.361-2.727-1.361-4.091 0-2.727.683-4.091 2.044-5.452.683-.683 2.047-1.364 3.408-1.364 2.047 0 3.408.683 4.091 1.364 1.364 1.361 2.044 2.727 2.044 4.771 0 1.364-.68 3.408-1.361 4.774-1.364.684-2.727 2.047-4.091 2.047-2.044-.002-3.408-.685-4.774-2.049zm-2.044-10.226c-.683 2.044-1.364 3.408-1.364 5.452 0 2.73.683 4.774 2.047 6.138 1.361 1.361 3.408 2.044 5.452 2.044 2.73 0 4.774-.683 6.135-2.728 1.364-1.363 2.047-3.407 2.047-5.454 0-2.044-.683-4.091-2.047-5.452-1.361-1.364-3.405-2.727-6.135-2.727-2.725 0-4.769 1.361-6.135 2.727zm39.543-2.727c2.047 0 3.408.683 4.091 1.361 1.363.683 2.727 2.046 2.727 4.091h-2.044c0-1.364-.683-2.045-1.364-2.728-.68-.683-2.044-.683-3.408-.683-1.361 0-2.727.683-3.407 1.364-1.364 1.361-1.364 2.727-1.364 4.771 0 2.047 0 3.408.683 4.774 1.364 1.364 2.73 2.047 4.091 2.047 2.047 0 2.727-.683 4.091-1.364.683-.683 1.364-2.046 1.364-4.091h-5.455v-2.044h7.499v8.863h-1.361l-.683-2.044c-.684.683-1.364 1.361-2.047 1.361-.683.683-2.044.683-3.408.683-2.044 0-3.408-.683-4.774-1.361-2.044-2.047-2.727-4.091-2.727-6.138 0-2.727.683-4.774 2.727-6.818 1.361-1.361 2.725-2.044 4.769-2.044zm27.956.683 4.088 7.496 4.774-7.496h2.727l-6.135 9.543v6.135h-2.044v-6.135l-6.138-9.543zm-437.712-58.637c-.683-.683-1.364-4.091-1.364-4.091 0-2.046.683-2.727.683-2.727s11.59-6.135 32.045-6.135c6.815-.683 17.044-.683 27.953 2.727.68.681 1.363 1.364 1.363 2.045.681 1.363.681 2.727.681 3.407.683 2.728.683 4.774.683 6.138 0 .683-1.364 2.727-1.364 3.408-.683 2.047.681 8.862 0 12.273 0 3.41-1.363 15.683-4.774 23.181-2.727 8.182-8.181 6.819-10.906 6.819l12.953 27.272h-62.044l9.546-47.724s0-1.364-1.364-2.047c-2.044-1.364-4.091-4.091-4.091-4.091s-1.364-1.366-2.727-8.862c0 0-1.364-7.499 0-8.865.683-.681 2.046-2.047 2.727-2.047z"/><path d="m105.801 181.59-4.088-1.361s-.683 0-1.364.68c0 .683-.683 3.408-.683 3.408v.683l9.546 6.818s-7.499-.683-10.226-.683c-2.728.683-7.499 3.41-10.909 4.094-2.728.68-15 1.363-15.681 1.363l-4.774-19.093s-.683-4.772-5.454-4.772c-4.091 0-4.772.681-4.772 1.364-.683.683 0 1.364 0 1.364l12.953 21.135s-8.862-4.091-12.272-8.182c-2.047-2.727-3.408-14.317-2.047-16.364.683-1.361 8.182-3.408 10.909-2.727 1.364 0 2.727 1.364 3.408 2.727h.683s-.681-4.091-3.408-4.091c-4.774-.68-8.862.683-8.862.683h-.683c0-.683-.681-4.774-.681-4.774s0-.68.681-1.363c0 0 12.272-5.455 30.68-5.455 2.047 0 19.091 0 27.273 3.408.68.683 0 2.727 0 4.774-.683.681-2.047 1.364-2.047 1.364-.68 0-1.364 1.363-1.364 1.363s1.364 15.681 2.047 16.364c0 .683-.683.683-2.727.683h-8.862s-2.047 0-2.047-1.364c0-.68.683-2.044.683-2.044h2.044s3.408-.002 2.044-.002zm-12.953 13.636s8.182-1.364 17.044.681c0 0 2.047 1.363 2.047 2.727 0 0-13.636.683-19.091-3.408zm.683 13.636s2.047-9.545 17.727-8.181c0 0 1.364.683-2.046 4.09-3.411 3.408-10.229 5.455-15.681 4.091z" fill="#ed1c2e"/><path d="m90.121 161.818s2.047 0 8.865 1.364c3.407.68 5.454 1.363 6.135 2.047.683 0 .683.68 0 .68 0 .683-8.863-2.727-14.317-2.047 0 0-5.455 2.047-12.273 8.182h-2.727c-.003 0 6.818-6.815 14.317-10.226z"/><path d="m83.986 171.364s5.454-2.728 8.862-3.408c2.727-.681 4.771-.681 6.138 0 1.363 0 2.727 3.408 2.727 4.091 0 0-4.094 2.046-8.182 1.363-3.41-.683-7.501-.683-9.545-2.046z"/><path d="m116.03 167.273c.68 0 .68 0 1.363.68.681 0 0 1.364 0 1.364 0 .683-.683 0-3.41 0 0 0 1.364-2.044 2.047-2.044zm-36.818 73.634h-23.863l8.863-45.681 5.454 4.091zm-1.364-25.226s11.59 7.501 13.636 10.228l1.364 15.683h-8.862zm20.455 14.316s6.818 6.819 8.862 11.59h-11.59z" fill="#ed1c2e"/><path d="m107.848 168.636s.683-.683.683.681c.681 3.41 2.044 11.59 2.044 12.273 0 1.363-1.363.68-1.363.68zm-24.545-11.589h.683l3.407 6.137-1.363.681zm-15.681 20.452s-1.364-4.091 1.364-4.772c2.727-.683 6.137-.683 10.909-.683 0 0-6.818 1.364-8.863 2.047-2.729.683-3.41 3.408-3.41 3.408z" fill="#fff"/><path d="m501.975 172.117c.329 0 .732.067.732.442 0 .476-.258.58-.659.58h-.073v1.257l.699 1.258h1.063l-1.102-1.871c.587-.034 1.025-.339 1.025-1.123 0-.952-.624-1.258-1.685-1.294zm0 5.377v-.919c1.504-.034 2.751-1.258 2.751-3.064 0-1.803-1.247-2.993-2.751-3.027v-.919c2.055.034 3.925 1.462 3.925 3.946s-1.87 3.949-3.925 3.983zm-.735-4.355v-1.022h.735v-.748h-1.653v4.287h.916v-1.803h.44l.295.543v-1.257zm.735-3.574v.919h-.072c-1.579 0-2.826 1.224-2.826 3.027 0 1.837 1.245 3.064 2.826 3.064h.072v.919h-.072c-2.094 0-4.001-1.462-4.001-3.983 0-2.481 1.907-3.946 4.001-3.946z" fill="#020202"/></svg>