<svg xmlns="http://www.w3.org/2000/svg" viewBox="0 0 171.86 33.79" fill="#ffffff">
    <g>
        <path d="M21.58.9h9.83a.48.48,0,0,1,.48.48.47.47,0,0,1-.1.3l-11.95,15a.27.27,0,0,0,0,.36l12,15a.48.48,0,0,1-.08.67.45.45,0,0,1-.3.1H21.58a.49.49,0,0,1-.38-.18l-9-11.7a.29.29,0,0,0-.23-.12H9.1A.15.15,0,0,0,9,21H9V32.41a.47.47,0,0,1-.48.48h-8A.47.47,0,0,1,0,32.41H0v-31A.47.47,0,0,1,.48.9h8A.47.47,0,0,1,9,1.38H9V12.75a.14.14,0,0,0,.14.14h2.84a.28.28,0,0,0,.23-.11l9-11.7A.51.51,0,0,1,21.58.9Zm63.84,16c0,9.33-7.48,16.89-17.8,16.89s-17.81-7.57-17.81-16.9S57.29,0,67.62,0s17.8,7.56,17.8,16.89Zm-8.94,0a8.87,8.87,0,1,0,0,.31v-.32Zm-40.27,16h8.64a.47.47,0,0,0,.48-.48h0v-31A.47.47,0,0,0,44.85.9H36.21a.47.47,0,0,0-.48.48h0v31a.47.47,0,0,0,.48.48ZM118.87.9h-9.82a.47.47,0,0,0-.38.19l-7.13,9.22a.14.14,0,0,1-.2,0l0,0L94.19,1.09A.47.47,0,0,0,93.81.9H84a.48.48,0,0,0-.37.78l12,15a.3.3,0,0,1,0,.36l-12,15a.48.48,0,0,0,.08.68.51.51,0,0,0,.3.1h9.82a.47.47,0,0,0,.38-.19l7.13-9.22a.13.13,0,0,1,.2,0s0,0,0,0l7.13,9.22a.47.47,0,0,0,.38.19h9.83a.48.48,0,0,0,.37-.78l-12-15a.27.27,0,0,1,0-.36l12-15a.48.48,0,0,0-.08-.67A.54.54,0,0,0,118.87.9Zm43.75,31.67-1.55-4.44a.29.29,0,0,0-.27-.2H147.69a.29.29,0,0,0-.27.2l-1.55,4.44a.49.49,0,0,1-.46.32h-8.29a.47.47,0,0,1-.48-.48.39.39,0,0,1,0-.15l10.82-31a.49.49,0,0,1,.46-.32h12.61a.49.49,0,0,1,.46.32l10.82,31a.48.48,0,0,1-.3.61l-.15,0h-8.3a.47.47,0,0,1-.46-.32ZM154.11,7.71,150,19.87a.29.29,0,0,0,.18.37h8.09a.28.28,0,0,0,.27-.38L154.39,7.71a.16.16,0,0,0-.18-.09A.13.13,0,0,0,154.11,7.71ZM123.67,32.89h8.64a.47.47,0,0,0,.48-.48h0v-31a.47.47,0,0,0-.48-.48h-8.64a.48.48,0,0,0-.48.48h0v31a.48.48,0,0,0,.48.48Z"/>
    </g>
</svg>
