<svg width="100%" height="100%" viewBox="0 0 330 90" version="1.1" xmlns="http://www.w3.org/2000/svg" xmlns:xlink="http://www.w3.org/1999/xlink" xml:space="preserve" xmlns:serif="http://www.serif.com/" style="fill-rule:evenodd;clip-rule:evenodd;stroke-linejoin:round;stroke-miterlimit:1.41421;"><path d="M155.588,71.054c-14.846,0 -28.165,-8.431 -28.165,-20.221c0,-11.795 13.319,-20.234 28.271,-20.234c6.501,0 12.571,1.64 19.172,5.322l-4.652,5.98c-4.231,-2.047 -9.214,-3.273 -14.52,-3.273c-6.284,0 -13.541,3.519 -13.541,12.205c0,8.682 7.149,12.2 13.541,12.2c5.306,0 10.396,-1.065 14.73,-2.952l4.661,6.307c-5.523,2.953 -12.243,4.666 -19.497,4.666Z" style="fill:#0077C8;fill-rule:nonzero;"/><path d="M240.389,70.904c14.947,0 28.273,-8.436 28.273,-20.221c0,-11.795 -13.326,-20.237 -28.273,-20.237c-14.951,0 -28.276,8.442 -28.276,20.237c0,11.785 13.325,20.221 28.276,20.221Zm13.542,-20.221c0,8.682 -7.256,12.197 -13.542,12.197c-6.286,0 -13.539,-3.515 -13.539,-12.197c0,-8.688 7.253,-12.207 13.539,-12.207c6.286,0 13.542,3.519 13.542,12.207Z" style="fill:#0077C8;fill-rule:nonzero;"/><path d="M274.681,69.927l13.963,0l0,-24.082c0,-3.25 2.527,-7.076 7.046,-7.104c3.156,0.028 6.183,2.186 6.183,4.926l-0.025,26.26l13.997,0l0,-27.004c0,-7.112 -7.623,-13.047 -16.721,-13.047c-0.088,0 -0.177,0.01 -0.264,0.014c-0.088,-0.004 -0.177,-0.014 -0.265,-0.014c-3.759,0 -7.324,1.096 -10.238,2.934c-0.026,-0.104 -0.809,-2.686 -13.676,-2.686l0,39.803Z" style="fill:#0077C8;fill-rule:nonzero;"/><rect x="107.032" y="31.435" width="13.679" height="38.492" style="fill:#0077C8;fill-rule:nonzero;"/><path d="M181.608,69.927l13.681,0l0,-23.342c0,-3.688 4.331,-6.639 8.992,-6.639c2.277,0 4.422,0.455 6.22,1.254l0.003,0l0,-10.125c-1.613,-0.244 -3.357,-0.377 -4.897,-0.377c-3.665,0 -7.344,1.065 -10.355,2.848c-0.224,-0.453 -1.901,-2.604 -13.644,-2.604l0,38.985Z" style="fill:#0077C8;fill-rule:nonzero;"/><path d="M111.783,4.085c-5.192,-7.436 -21.322,-4.422 -42.229,6.623c-0.934,0.461 -1.764,0.943 -2.375,1.365c-1.012,0.699 -0.42,1.213 0.324,0.942c0.763,-0.278 1.635,-0.614 2.617,-1.094c15.674,-7.432 27.896,-8.768 32.676,-3.58c7.281,7.902 -7.631,33.797 -33.453,52.953c-3.448,2.557 -8.768,6.299 -12.233,8.379c-0.233,0.143 -0.465,0.285 -0.691,0.434c-0.914,0.599 -1.731,1.156 -2.373,1.656c-0.623,0.488 -0.504,1.26 0.625,0.776c0.683,-0.293 1.519,-0.739 2.408,-1.28c0.2,-0.123 0.398,-0.234 0.606,-0.365c3.894,-2.363 9.675,-6.355 13.624,-9.111c3.397,-2.373 6.606,-4.78 9.626,-7.2l-0.002,15.344l14.008,0l0,-28.016c15.426,-15.912 21.814,-30.705 16.842,-37.826Z" style="fill:#0077C8;fill-rule:nonzero;"/><path d="M26.179,89.915l14.008,0l-0.001,-14.519c3.83,-2.262 7.706,-4.742 11.516,-7.342c0.859,-0.588 1.617,-1.174 2.166,-1.678c0.906,-0.828 0.253,-1.253 -0.449,-0.884c-0.719,0.377 -1.571,0.89 -2.49,1.478c-21.641,13.838 -36.249,18.063 -41.645,10.738c-4.686,-6.357 2.996,-18.65 16.895,-32.531l0,32.223c3.943,-1.34 8.605,-3.477 14.006,-6.479l-0.003,-29.895l3.081,6.555c3.377,7.243 9.505,11.571 17.297,11.571c7.792,0 13.919,-4.328 17.297,-11.571l3.081,-6.555l-0.002,7.627c5.012,-4.859 9.29,-9.715 12.538,-14.41c0.404,-0.58 0.369,-1.07 0.148,-1.605c-2.162,-4.506 -6.76,-7.614 -12.102,-7.614c-5.281,0 -9.871,3.067 -12.07,7.498l-5.86,12.434c-0.606,1.213 -1.723,1.885 -3.028,1.885c-1.303,0 -2.426,-0.672 -3.032,-1.885l-5.861,-12.434c-1.116,-2.252 -2.852,-4.15 -4.981,-5.472c4.285,-3.405 8.451,-6.444 12.555,-8.932c0.934,-0.566 1.699,-1.135 2.344,-1.629c0.631,-0.482 0.516,-1.254 -0.616,-0.779c-0.686,0.287 -1.576,0.726 -2.468,1.266c-4.19,2.539 -8.475,5.14 -12.573,7.937c-0.496,0.338 -0.988,0.68 -1.478,1.02c-1.508,-0.584 -3.144,-0.909 -4.854,-0.909c-7.424,0 -13.419,5.998 -13.419,13.422l0,1.85c-19.789,17.643 -30.177,35.116 -24.747,42.895c3.985,5.705 13.433,4.387 24.747,-0.527l0,7.251Z" style="fill:#0077C8;fill-rule:nonzero;"/><path d="M325.17,33.32l0.735,0c0.493,0 0.919,-0.066 0.919,-0.668c0,-0.526 -0.481,-0.613 -0.909,-0.613l-0.745,0l0,1.281Zm-0.831,-1.917l1.664,0c1.073,0 1.653,0.373 1.653,1.315c0,0.766 -0.438,1.138 -1.171,1.204l1.205,1.96l-0.856,0l-1.159,-1.927l-0.505,0l0,1.927l-0.831,0l0,-4.479Zm4.511,2.256c0,-1.85 -1.336,-3.186 -2.989,-3.186c-1.654,0 -2.99,1.336 -2.99,3.186c0,1.851 1.336,3.187 2.99,3.187c1.653,0 2.989,-1.336 2.989,-3.187Zm-6.942,0c0,-2.179 1.774,-3.953 3.953,-3.953c2.178,0 3.953,1.774 3.953,3.953c0,2.179 -1.775,3.953 -3.953,3.953c-2.179,0 -3.953,-1.774 -3.953,-3.953Z" style="fill:#0077C8;fill-rule:nonzero;"/></svg>