<?xml version="1.0" encoding="UTF-8"?>
<svg id="Logo" xmlns="http://www.w3.org/2000/svg" viewBox="0 0 216 46.28">
  <title>White Micron logo</title>
<desc>White Micron logo</desc>
<metadata><?xpacket begin="﻿" id="W5M0MpCehiHzreSzNTczkc9d"?>
<x:xmpmeta xmlns:x="adobe:ns:meta/" x:xmptk="Adobe XMP Core 8.0-c001 1.000000, 0000/00/00-00:00:00        ">
   <rdf:RDF xmlns:rdf="http://www.w3.org/1999/02/22-rdf-syntax-ns#">
      <rdf:Description rdf:about=""
            xmlns:ns1="https://www.micron.com/namespaces/dam/mt/1.0/"
            xmlns:dc="http://purl.org/dc/elements/1.1/"
            xmlns:Iptc4xmpCore="http://iptc.org/std/Iptc4xmpCore/1.0/xmlns/">
         <ns1:groovyProcessingStatus>true</ns1:groovyProcessingStatus>
         <ns1:tempTitle>White Micron logo</ns1:tempTitle>
         <ns1:legacyDamPath>/micron/global/images/logos/Micron-logo_white.svg</ns1:legacyDamPath>
         <ns1:documentID>652506f6-3869-4e9b-a1bd-d5b4209f850c</ns1:documentID>
         <ns1:tempDescription>White Micron logo</ns1:tempDescription>
         <ns1:lifecycleReview>
            <rdf:Bag>
               <rdf:li>2-years</rdf:li>
            </rdf:Bag>
         </ns1:lifecycleReview>
         <ns1:rba>
            <rdf:Bag>
               <rdf:li>micron:business-unit/global-communications-marketing</rdf:li>
            </rdf:Bag>
         </ns1:rba>
         <ns1:showOn>
            <rdf:Bag>
               <rdf:li>micron</rdf:li>
            </rdf:Bag>
         </ns1:showOn>
         <dc:format>image/svg+xml</dc:format>
         <dc:modified>2025-04-17T04:57:41.550Z</dc:modified>
         <dc:description>
            <rdf:Alt>
               <rdf:li xml:lang="x-default">White Micron logo</rdf:li>
            </rdf:Alt>
         </dc:description>
         <dc:title>
            <rdf:Alt>
               <rdf:li xml:lang="x-default">White Micron logo</rdf:li>
            </rdf:Alt>
         </dc:title>
         <Iptc4xmpCore:CreatorContactInfo>
            <rdf:Description/>
         </Iptc4xmpCore:CreatorContactInfo>
      </rdf:Description>
   </rdf:RDF>
</x:xmpmeta>





















<?xpacket end="w"?></metadata>
<defs>
    <style>
      .cls-1 {
        fill: #fff;
      }
    </style>
  </defs>
  <path class="cls-1" d="M0,39.55h9.36c2.81,0,4.1-1.11,4.1-4.28v-6.64c0-9.9,4.64-15.07,13.51-15.07,4.64,0,8.16,1.65,10.25,4.82,2.18-3.17,5.53-4.82,10.17-4.82,8.87,0,13.51,5.17,13.51,15.07v16.94h-6.6v-16.94c0-6.11-2.45-9.05-6.91-9.05s-6.91,2.94-6.91,9.05v16.94h-6.6v-16.94c0-6.11-2.45-9.05-6.91-9.05s-6.91,2.94-6.91,9.05v6.64c0,7.4-3.57,10.3-10.7,10.3H0v-6.02ZM74.46,0c2.32,0,4.24,1.92,4.24,4.24s-1.92,4.24-4.24,4.24-4.24-1.92-4.24-4.24,1.92-4.24,4.24-4.24ZM71.16,14.27h6.6v31.3h-6.6V14.27ZM100.84,13.55c3.25,0,5.93.62,8.52,1.78l-2.1,5.57c-2.59-.98-4.5-1.34-6.42-1.34-4.99,0-8.2,3.57-8.2,10.34s3.21,10.34,8.2,10.34c2.05,0,3.97-.4,6.78-1.52l2.27,5.57c-2.85,1.29-6.06,1.96-9.05,1.96-9.1,0-14.89-6.11-14.89-16.36s5.8-16.36,14.89-16.36ZM128.68,13.55c2.1,0,4.28.45,5.97,1.07l-1.96,5.66c-1.25-.49-2.54-.71-4.01-.71-3.83,0-5.8,2.76-5.8,8.16,0,4.77.09,9.94.18,17.83h-6.6c-.09-7.89-.18-13.06-.18-17.83,0-9.63,4.37-14.18,12.39-14.18ZM152.79,13.55c9.36,0,15.16,6.11,15.16,16.36s-5.8,16.36-15.16,16.36-15.16-6.11-15.16-16.36,5.8-16.36,15.16-16.36ZM152.79,40.26c5.26,0,8.47-3.57,8.47-10.34s-3.21-10.34-8.47-10.34-8.47,3.57-8.47,10.34,3.21,10.34,8.47,10.34ZM188.8,13.55c9.1,0,13.73,5.17,13.73,15.07v6.64c0,3.17,1.29,4.28,4.1,4.28h9.36v6.02h-9.36c-7.13,0-10.7-2.9-10.7-10.3v-6.64c0-6.11-2.45-9.05-7.13-9.05s-7.13,2.94-7.13,9.05v16.94h-6.6v-16.94c0-9.9,4.64-15.07,13.73-15.07Z"/>
</svg>
