<svg width="229.62" height="44.16" version="1.1" id="Layer_logo" xmlns:x="http://ns.adobe.com/Extensibility/1.0/" xmlns:i="http://ns.adobe.com/AdobeIllustrator/10.0/" xmlns:graph="http://ns.adobe.com/Graphs/1.0/" xmlns="http://www.w3.org/2000/svg" xmlns:xlink="http://www.w3.org/1999/xlink" x="0px" y="0px" viewBox="0 0 382.7 73.6" style="enable-background:new 0 0 382.7 73.6;" xml:space="preserve">
<style type="text/css">
	.st0{fill:#FFA400;}
</style>
    <g i:extraneous="self">
	<g>
		<path class="st0" d="M15.4,1.2h32.3c6.1,0,10.7,0.7,13.8,2.2c3.1,1.4,5.4,3.6,7.1,6.4c1.6,2.8,2.4,6.3,2.4,10.4
			c0,5.3-1.4,10.1-4.3,14.2c-2.9,4.2-6.5,7.1-10.9,9c-4.4,1.8-10.4,2.7-18.2,2.7h-9.7l-5.7,26.2H0L15.4,1.2z M30.9,32h7.4
			c3.5,0,6.3-1,8.5-3c2.2-2,3.3-4.4,3.3-7.2c0-4.2-2.3-6.4-7-6.4h-8.7L30.9,32z"></path>
        <path class="st0" d="M145.8,1.2l-15.3,71.1h-22.1l6.2-28.9H90.8l-6.1,28.9H62.4L77.6,1.2h22.1l-5.3,25.2h23.7l5.6-25.2H145.8z"></path>
        <path class="st0" d="M173.9,1.2l-15.2,71.1h-22.3l15.2-71.1H173.9z"></path>
        <path class="st0" d="M234.7,20.9l-20.7,1.1c-0.5-6.1-3.9-9.2-10.2-9.2c-2.6,0-4.6,0.6-6,1.7c-1.4,1.1-2.1,2.4-2.1,4
			c0,1.1,0.6,2.2,1.7,3.2c1.1,1,3.8,2.3,8,3.9c5.3,2.1,9.7,4,13,5.9c3.3,1.8,6.1,4.2,8.2,7.2c2.1,2.9,3.2,6.6,3.2,11
			c0,4.1-1.2,8-3.5,11.6c-2.3,3.6-5.6,6.5-10,8.8c-4.3,2.3-10.5,3.5-18.5,3.5c-11.3,0-19.3-2.2-24-6.5c-4.7-4.3-7.1-9.9-7.1-16.7
			v-1.7l20.7-1.4c0,4.4,1,7.5,2.9,9.4c2,1.8,4.7,2.7,8.1,2.7c3.5,0,6.1-0.8,8-2.3c1.8-1.5,2.7-3.2,2.7-5.2c0-1.5-0.6-2.8-1.7-4
			c-1.2-1.2-4-2.7-8.6-4.3c-10.4-3.8-17-7.2-19.7-10.4c-2.8-3.2-4.1-7-4.1-11.5c0-4.1,1.1-7.8,3.4-11.2c2.3-3.4,5.6-6,9.9-7.8
			C192.8,0.9,198,0,204,0C223.3,0,233.5,7,234.7,20.9z"></path>
        <path class="st0" d="M274,0c10.8,0,18.8,2.9,23.9,8.7c5.1,5.8,7.6,13,7.6,21.4c0,3.3-0.5,7-1.4,11.2c-0.9,4.2-2.8,8.5-5.4,13
			c-2.7,4.5-6.2,8.3-10.5,11.4c-4.3,3.1-8.4,5.2-12.4,6.3c-3.9,1.1-8.1,1.6-12.6,1.6c-10.2,0-18.1-2.6-23.8-7.7
			c-5.7-5.1-8.5-12.4-8.5-21.7c0-4.9,0.7-9.6,2.1-14.2c1.4-4.6,3.5-9,6.3-13.1c2.8-4.1,6.2-7.5,10.3-10.3c4.1-2.8,8.1-4.6,12.1-5.4
			C265.7,0.4,269.8,0,274,0z M264.6,57.5c4.2,0,7.8-1.6,10.8-4.8c3-3.2,5.1-7.3,6.5-12.2c1.4-4.9,2-8.4,2-10.5
			c0-4.6-1.2-8-3.5-10.4c-2.3-2.3-5.3-3.5-8.8-3.5c-4,0-7.5,1.5-10.4,4.4c-2.9,2.9-5.1,6.8-6.5,11.7c-1.5,4.9-2.2,9.1-2.2,12.5
			c0,3.6,1.1,6.7,3.2,9.1C257.8,56.3,260.8,57.5,264.6,57.5z"></path>
        <path class="st0" d="M382.7,1.2l-15.3,71.1h-20.7l-17.5-41.3H329l-8.9,41.3h-20.7l15.3-71.1h20.6l17.5,41.4h0.2L362,1.2H382.7z"></path>
	</g>
</g>
</svg>
