<svg focusable="false" xmlns="http://www.w3.org/2000/svg" viewBox="0 0 174.95 26.79" fill="#0c4da2">
    <path d="M638.8,443.72a3.11,3.11,0,0,1,0-1.31,2.06,2.06,0,0,1,2.29-1.69,2.14,2.14,0,0,1,2.32,2.27v1.55h6.24v-1.76c0-5.44-4.91-6.31-8.44-6.31-4.44,0-8.07,1.47-8.74,5.56a8.64,8.64,0,0,0,0,3.37c1.08,5.11,10,6.59,11.26,9.83a3.23,3.23,0,0,1,0,1.85,2.16,2.16,0,0,1-2.44,1.69,2.23,2.23,0,0,1-2.5-2.28v-2.41h-6.71V456c0,5.59,4.39,7.27,9.09,7.27,4.52,0,8.23-1.54,8.83-5.73a12.43,12.43,0,0,0,0-4.09C649,448.2,639.51,446.65,638.8,443.72Zm81.34.06a3.35,3.35,0,0,1,0-1.29,2.05,2.05,0,0,1,2.27-1.67,2.11,2.11,0,0,1,2.29,2.25v1.53h6.17v-1.74c0-5.39-4.83-6.24-8.33-6.24-4.41,0-8,1.45-8.66,5.51a8.35,8.35,0,0,0,.06,3.33c1.07,5.06,9.87,6.52,11.15,9.72a3.38,3.38,0,0,1,0,1.83c-.19.83-.75,1.67-2.41,1.67a2.21,2.21,0,0,1-2.49-2.24V454h-6.64v1.91c0,5.53,4.33,7.2,9,7.2,4.47,0,8.16-1.53,8.75-5.66a12.19,12.19,0,0,0,0-4.05C730.23,448.24,720.85,446.68,720.14,443.78Zm56.79,13.63L771,437.27h-9.28V462h6.14l-.36-20.78L773.86,462h8.9V437.27h-6.18Zm-118-20.14-4.63,25h6.76l3.49-23.15,3.41,23.15h6.71l-4.61-25Zm37.78,0-3.16,19.55-3.15-19.55h-10.2l-.54,25h6.25l.17-23.15,4.3,23.15h6.34l4.3-23.15.17,23.15h6.27l-.56-25Zm58.12,0H748.5v18.5a4.4,4.4,0,0,1-.06,1,2.49,2.49,0,0,1-4.79,0,4,4,0,0,1-.06-1v-18.5h-6.32V455.2c0,.46,0,1.41.06,1.65.44,4.67,4.12,6.19,8.72,6.19s8.29-1.52,8.73-6.19a13,13,0,0,0,.05-1.65Zm43.43,11v3.65h2.56v3.62a4.57,4.57,0,0,1-.07,1,2.7,2.7,0,0,1-5.11,0,6.21,6.21,0,0,1-.07-1V444.08a5.11,5.11,0,0,1,.11-1.18,2.62,2.62,0,0,1,5,0,6.59,6.59,0,0,1,.08,1v1.39H807v-.82a15,15,0,0,0,0-1.66c-.47-4.69-4.34-6.18-8.77-6.18s-8.23,1.5-8.78,6.18c0,.43-.13,1.2-.13,1.66v10.51a14.25,14.25,0,0,0,.1,1.65c.41,4.56,4.37,6.18,8.79,6.18s8.38-1.62,8.79-6.18c.07-.84.08-1.19.09-1.65v-6.7Z"
          transform="translate(-632.15 -436.48)"/>
    <rect class="btn" fill="transparent" width="100%" height="100%"/>
</svg>
