<svg width="805" height="81" viewBox="0 0 805 81" fill="none" xmlns="http://www.w3.org/2000/svg">
<g clip-path="url(#clip0_11091_10894)">
<path d="M319.939 54.8051C319.939 57.5044 317.94 59.8039 315.241 60.2038C312.842 60.5037 310.543 59.0041 309.744 56.8046L291.452 6.61715C290.053 2.61815 286.754 0.21875 282.756 0.21875H239.977V80.1988H271.362V60.2038H265.764C262.066 60.2038 259.967 57.0046 259.967 53.1055V29.0116C259.967 23.113 265.764 18.7141 271.162 21.0136C273.161 21.9133 274.86 23.7129 275.66 25.8124L290.253 63.8029C294.051 73.8004 303.547 80.1988 314.241 80.1988H314.841C328.635 80.1988 339.929 69.2015 339.929 55.305V0.21875H319.939V54.8051Z" fill="#E10600"/>
<path d="M420.019 0.21875H360.047V20.3137H420.019C430.614 20.3137 439.909 29.6114 439.909 40.2088C439.909 50.8061 430.614 60.1038 420.019 60.1038H360.047V80.1988H420.019C435.111 80.1988 448.305 71.8009 455.102 59.5039C458.2 53.8054 460 47.207 460 40.2088C460 33.2105 458.2 26.7121 455.102 20.9136C448.305 8.51668 435.211 0.21875 420.019 0.21875Z" fill="#E10600"/>
<path d="M472.495 20.2138C472.995 20.2138 473.494 20.2138 474.094 20.3137C477.782 20.8136 479.991 23.8129 479.991 27.8119V80.1988H499.982V0.21875H468.297V20.2138H472.495Z" fill="#E10600"/>
<path d="M620.031 64.2037V80.1997L535.371 47.7079C521.977 42.5092 520.078 32.8116 520.078 24.2137C520.078 10.9171 530.973 0.219727 544.267 0.219727H619.931V31.5119H599.94V25.9133C599.94 22.6441 596.792 20.2147 593.813 20.2147H549.664C546.266 20.2147 543.467 22.9141 543.467 26.3132C543.467 29.7124 545.066 31.312 547.565 32.2117L613.474 55.4759C613.474 55.4759 620.031 57.3454 620.031 64.2037Z" fill="#E10600"/>
<path d="M539.673 60.2061H519.883V80.2011H539.673V60.2061Z" fill="#E10600"/>
<path d="M99.9527 64.2037V80.1997L15.2928 47.7079C1.8991 42.5092 0 32.8116 0 24.2137C0 10.9171 10.8948 0.219727 24.1886 0.219727H99.8528V31.5119H79.8622V25.9133C79.8622 22.6441 76.7137 20.2147 73.7351 20.2147H29.586C26.1876 20.2147 23.3889 22.9141 23.3889 26.3132C23.3889 29.7124 24.9882 31.312 27.487 32.2117L93.3958 55.4759C93.3958 55.4759 99.9527 57.3454 99.9527 64.2037Z" fill="#E10600"/>
<path d="M19.7906 60.2061H0V80.2011H19.7906V60.2061Z" fill="#E10600"/>
<path d="M740 20.3137V0.21875H722.378C720.989 0.21875 719.639 0.73862 718.61 1.66839L687.325 30.0113C686.425 30.8111 685.325 31.311 684.026 31.311H662.236C660.917 31.311 659.838 30.2312 659.838 28.9116V0.21875H640.047V80.1988H659.838V51.5059C659.838 50.1863 660.917 49.1065 662.236 49.1065H684.026C685.226 49.1065 686.345 49.4864 687.325 50.4062L718.61 78.7491C719.639 79.6889 720.989 80.1988 722.378 80.1988H740V60.2038H730.404C727.406 60.2038 724.507 59.104 722.208 57.2045L707.315 44.1078C705.016 42.1083 705.016 38.5092 707.315 36.4097L722.208 23.313C724.507 21.4135 727.406 20.4137 730.404 20.3137H740Z" fill="#E10600"/>
<path d="M189.412 0.199219C180.517 0.399169 172.121 4.49814 166.623 11.4964L111.789 80.1992H139.576L184.805 24.4931C187.043 21.7538 188.683 20.3942 192.201 20.3942C196.699 20.3942 199.797 24.2932 199.797 28.892V53.086C199.797 56.985 197.798 60.1842 194.1 60.1842H188.503V80.1792H219.788V30.0917C219.788 25.9928 219.888 0.199219 189.402 0.199219H189.412Z" fill="#E10600"/>
</g>
<path d="M804.429 0.199219V20.1992H800.057V4.34208H799.886L794.143 20.1992H790.2L784.514 4.34208H784.343V20.1992H780V0.199219H787.571L792.286 13.6849H792.486L797.286 0.199219H804.429Z" fill="#E10600"/>
<path d="M770.543 4.02779V20.1992H766.086V4.02779H760V0.199219H776.714V4.02779H770.543Z" fill="#E10600"/>
<defs>
<clipPath id="clip0_11091_10894">
<rect width="740" height="80" fill="white" transform="translate(0 0.199219)"/>
</clipPath>
</defs>
</svg>
