<svg xmlns="http://www.w3.org/2000/svg" xmlns:xlink="http://www.w3.org/1999/xlink" width="225" height="50" viewBox="0 0 225 50">
  <defs>
    <linearGradient id="linear-gradient" x1="0.5" x2="0.5" y2="1" gradientUnits="objectBoundingBox">
      <stop offset="0" stop-color="#005d96"/>
      <stop offset="1" stop-color="#0b91d3"/>
    </linearGradient>
    <linearGradient id="linear-gradient-2" x1="0.5" x2="0.5" y2="1" gradientUnits="objectBoundingBox">
      <stop offset="0" stop-color="#002a5c"/>
      <stop offset="1" stop-color="#005197"/>
    </linearGradient>
    <linearGradient id="linear-gradient-3" x1="0.717" y1="0.213" x2="0.5" y2="1" gradientUnits="objectBoundingBox">
      <stop offset="0" stop-color="#afdbf5"/>
      <stop offset="1" stop-color="#1492d3"/>
    </linearGradient>
  </defs>
  <g id="Group_564" data-name="Group 564" transform="translate(4428 1313)">
    <rect id="Rectangle_522" data-name="Rectangle 522" width="225" height="50" transform="translate(-4428 -1313)" fill="none"/>
    <path id="Path_1042" data-name="Path 1042" d="M55.292,69.661l11.224-5.783-.59,20.151-9.394,5.325Z" transform="translate(-4453.459 -1358.457)" fill="#fff"/>
    <path id="Path_1043" data-name="Path 1043" d="M29.547,72.6v1.909l18.432,9.971,2.043-.964V70.823L35.675,64.458Z" transform="translate(-4451.547 -1358.5)" fill="#fff"/>
    <g id="Group_563" data-name="Group 563" transform="translate(-4376.847 -1300.76)">
      <path id="Path_1044" data-name="Path 1044" d="M94.732,62.417l-4.023.931a3.1,3.1,0,0,0-3.324-2.427,2.98,2.98,0,0,0-1.95.6,1.8,1.8,0,0,0-.72,1.444,1.473,1.473,0,0,0,.569,1.27,6.217,6.217,0,0,0,2.239.858,20.958,20.958,0,0,1,3.8,1.269,5.009,5.009,0,0,1,2.118,1.881,5.582,5.582,0,0,1,.742,2.953,6.1,6.1,0,0,1-2.041,4.674,8.269,8.269,0,0,1-5.81,1.872,9.113,9.113,0,0,1-5.353-1.492,6.545,6.545,0,0,1-2.653-4.489l4.184-.584c.435,1.949,1.767,2.92,4.014,2.92a3.628,3.628,0,0,0,2.329-.651,2.08,2.08,0,0,0,.817-1.672,1.538,1.538,0,0,0-.636-1.384,11.078,11.078,0,0,0-2.864-1.032,14.323,14.323,0,0,1-3.234-1.177,4.8,4.8,0,0,1-1.913-1.845A5.157,5.157,0,0,1,80.3,63.6a6.05,6.05,0,0,1,1.885-4.4,6.915,6.915,0,0,1,5.186-1.919Q93.064,57.278,94.732,62.417Z" transform="translate(-78.323 -57.208)" fill="#fff"/>
      <path id="Path_1045" data-name="Path 1045" d="M102.968,62.977l-2.451,14.67H96.106l2.446-14.67Zm1-5.743-.687,4.186H98.857l.7-4.186Z" transform="translate(-79.644 -57.204)" fill="#fff"/>
      <path id="Path_1046" data-name="Path 1046" d="M116.641,62.977l-2.458,14.67h-4.4l2.449-14.67Zm1-5.743-.7,4.186h-4.417l.707-4.186Z" transform="translate(-80.66 -57.204)" fill="#fff"/>
      <path id="Path_1047" data-name="Path 1047" d="M226.426,62.977l-2.447,14.67H219.56L222,62.977Zm1-5.743-.692,4.186h-4.417l.7-4.186Z" transform="translate(-88.815 -57.204)" fill="#fff"/>
      <path id="Path_1048" data-name="Path 1048" d="M110.692,57.2l-3.406,20.443h-4.24l3.41-20.443Z" transform="translate(-80.16 -57.202)" fill="#fff"/>
      <path id="Path_1049" data-name="Path 1049" d="M130.848,72.621c-1.239,3.644-3.5,5.48-6.765,5.48a5.95,5.95,0,0,1-4.727-1.922,7.129,7.129,0,0,1-1.669-4.864,9.175,9.175,0,0,1,2.077-5.9,6.77,6.77,0,0,1,5.551-2.595,5.774,5.774,0,0,1,4.619,1.706A5.555,5.555,0,0,1,131.4,68.17v.322l-3.745.234a2.732,2.732,0,0,0-.676-2.089,2.285,2.285,0,0,0-1.552-.627,2.6,2.6,0,0,0-2.311,1.669,9.412,9.412,0,0,0-.861,4.343c0,1.81.751,2.708,2.241,2.708q1.988,0,2.771-2.586Z" transform="translate(-81.247 -57.619)" fill="#fff"/>
      <path id="Path_1050" data-name="Path 1050" d="M141.464,62.7a6.048,6.048,0,0,1,4.623,1.9,7.072,7.072,0,0,1,1.763,4.989,8.923,8.923,0,0,1-2.136,6.007,6.833,6.833,0,0,1-5.378,2.5,6.08,6.08,0,0,1-4.6-1.9,6.512,6.512,0,0,1-1.824-4.744,9.4,9.4,0,0,1,2.1-6.26A6.738,6.738,0,0,1,141.464,62.7Zm-.055,2.86c-1.183,0-2,.763-2.461,2.258a15.728,15.728,0,0,0-.68,4.624c0,1.846.719,2.773,2.158,2.773q1.765,0,2.417-2.437a17.179,17.179,0,0,0,.662-4.432C143.505,66.494,142.8,65.56,141.41,65.56Z" transform="translate(-82.453 -57.61)" fill="#fff"/>
      <path id="Path_1051" data-name="Path 1051" d="M155.89,63.386l-.468,2.779c1.062-2.036,2.523-3.056,4.368-3.056a3.7,3.7,0,0,1,2.8,1.123,3.872,3.872,0,0,1,1.084,2.834,21.121,21.121,0,0,1-.338,2.729l-1.363,8.258h-4.23l1.43-8.583a13.289,13.289,0,0,0,.21-1.614c0-1.04-.494-1.554-1.5-1.554a2.25,2.25,0,0,0-1.447.533,3.066,3.066,0,0,0-.969,1.357,16.21,16.21,0,0,0-.588,2.6l-1.209,7.259H149.43l2.446-12.3Z" transform="translate(-83.605 -57.641)" fill="#fff"/>
      <path id="Path_1052" data-name="Path 1052" d="M249.68,63.386l-.461,2.779c1.051-2.036,2.511-3.056,4.363-3.056a3.714,3.714,0,0,1,2.8,1.123,3.927,3.927,0,0,1,1.081,2.834,22.068,22.068,0,0,1-.33,2.729l-1.379,8.258h-4.22l1.427-8.583a12.9,12.9,0,0,0,.21-1.614c0-1.04-.493-1.554-1.5-1.554a2.335,2.335,0,0,0-1.457.533,3.032,3.032,0,0,0-.955,1.357,16.825,16.825,0,0,0-.589,2.6l-1.215,7.259h-4.236l2.462-12.3Z" transform="translate(-90.572 -57.641)" fill="#fff"/>
      <path id="Path_1053" data-name="Path 1053" d="M190.61,57.7l-3.286,19.686h-4.6L185.478,60.9,177.5,77.385h-2.675l-2.564-16.662-2.785,16.662h-3.7L169.047,57.7h6.907l1.727,12.037L183.507,57.7Z" transform="translate(-84.819 -57.239)" fill="#fff"/>
      <path id="Path_1054" data-name="Path 1054" d="M200.014,62.7a6.029,6.029,0,0,1,4.621,1.9,7.052,7.052,0,0,1,1.772,4.989,8.875,8.875,0,0,1-2.144,6.007,6.8,6.8,0,0,1-5.377,2.5,6.083,6.083,0,0,1-4.592-1.9,6.535,6.535,0,0,1-1.824-4.744,9.4,9.4,0,0,1,2.095-6.26A6.763,6.763,0,0,1,200.014,62.7Zm-.049,2.86c-1.188,0-2.009.763-2.459,2.258a15.824,15.824,0,0,0-.685,4.624c0,1.846.719,2.773,2.161,2.773,1.178,0,1.98-.812,2.419-2.437a17.288,17.288,0,0,0,.651-4.432C202.051,66.494,201.357,65.56,199.964,65.56Z" transform="translate(-86.803 -57.61)" fill="#fff"/>
      <path id="Path_1055" data-name="Path 1055" d="M218.768,66.044h-3.459l-1.017,5.874a9.718,9.718,0,0,0-.154,1.279c0,.781.63,1.17,1.9,1.17a9.029,9.029,0,0,0,1.523-.1l-.542,3.223a18.114,18.114,0,0,1-2.911.248c-2.91,0-4.364-1.191-4.364-3.553a19.787,19.787,0,0,1,.463-3.314l.974-4.823h-2.262l.562-3.363h2.437l.677-3.184,4.326-2.262-.985,5.447h3.388Z" transform="translate(-88.025 -57.204)" fill="#fff"/>
      <path id="Path_1056" data-name="Path 1056" d="M235.3,62.7a6.047,6.047,0,0,1,4.623,1.9,7.078,7.078,0,0,1,1.774,4.989,8.885,8.885,0,0,1-2.146,6.007,6.82,6.82,0,0,1-5.379,2.5,6.111,6.111,0,0,1-4.6-1.9,6.515,6.515,0,0,1-1.812-4.744,9.377,9.377,0,0,1,2.085-6.26A6.769,6.769,0,0,1,235.3,62.7Zm-.056,2.86c-1.176,0-2,.763-2.447,2.258a15.407,15.407,0,0,0-.691,4.624c0,1.846.716,2.773,2.161,2.773,1.176,0,1.976-.812,2.417-2.437a17.127,17.127,0,0,0,.651-4.432C237.335,66.494,236.646,65.56,235.244,65.56Z" transform="translate(-89.425 -57.61)" fill="#fff"/>
    </g>
    <path id="Path_1057" data-name="Path 1057" d="M65.133,67.418v16.29l4.692-2.665-.1-25.485-18.05,7.7-.008,28.088,5.53-3.141V71.319a1.332,1.332,0,0,1-.89-1.217,1.5,1.5,0,0,1,2.97,0,1.3,1.3,0,0,1-.568,1.051v16.2l4.912-2.793V67.494a1.322,1.322,0,0,1-.8-1.181,1.5,1.5,0,0,1,2.974,0A1.313,1.313,0,0,1,65.133,67.418Z" transform="translate(-4453.19 -1357.839)" fill="url(#linear-gradient)"/>
    <path id="Path_1058" data-name="Path 1058" d="M29.547,72,41.66,77.516a1.584,1.584,0,0,1,.918-.286,1.336,1.336,0,1,1,0,2.655,1.451,1.451,0,0,1-1.468-1.105L29.547,73.517v7.7L50.022,91.338V72.809L38,67.424a1.607,1.607,0,0,1-.8.209,1.335,1.335,0,1,1,0-2.653,1.43,1.43,0,0,1,1.482,1.239l11.354,5.07,0-8.038L29.547,55.444Z" transform="translate(-4451.547 -1357.831)" fill="url(#linear-gradient-2)"/>
    <path id="Path_1059" data-name="Path 1059" d="M29.547,54.914,48.787,48.3l19.294,6.719L50.03,62.72Z" transform="translate(-4451.547 -1357.3)" fill="url(#linear-gradient-3)"/>
    <path id="Path_1060" data-name="Path 1060" d="M29.547,55.444" transform="translate(-4451.547 -1357.831)" fill="#fff"/>
  </g>
</svg>
