<svg height="35" fill="#ffffff" viewBox="0 0 198 27" xmlns="http://www.w3.org/2000/svg">
    <g>
        <path d="M57.1696 2.7204H61.2941V6.39295H64.5397V9.28337H61.2941V16.3904C61.2941 17.6486 62.0379 18.5327 63.2888 18.5327C63.6945 18.5327 64.0664 18.4987 64.4383 18.4307V20.9471C63.5255 21.2531 62.545 21.3892 61.5646 21.3892C58.1838 21.3892 57.1357 19.2128 57.1357 16.4584L57.1696 2.7204ZM95.4404 6.39295H91.282V20.9471H95.4404V12.1738C95.4404 10.4395 96.3532 9.28337 98.0098 9.28337C99.8692 9.28337 100.613 10.6436 100.613 12.1738V20.9131H104.805V11.1877C104.805 8.19521 103.149 5.95088 99.6326 5.95088C96.7589 5.95088 95.7784 7.65113 95.4742 8.16121H95.4066L95.4404 6.39295ZM89.8958 5.95088C86.1431 5.95088 85.2641 8.0932 84.9598 8.7393H84.8922V6.39295H81.1733V20.9471H85.3317V13.704C85.3317 10.5756 87.394 9.28337 89.8958 9.28337V5.95088ZM52.4364 10.4736L55.1073 8.67128C54.7692 8.0932 53.3492 5.95088 49.1908 5.95088C46.0805 5.95088 43.5111 7.54912 43.5111 10.3715C43.5111 13.0239 45.4043 14.2821 47.5004 14.9282C48.1428 15.1322 48.7513 15.3023 49.2923 15.4723C50.4079 15.8463 51.2869 16.1524 51.2869 17.0025C51.2869 17.7846 50.4417 18.3287 48.9204 18.3287C47.6357 18.3627 46.4524 17.7166 45.7424 16.6285L42.9363 18.1927C43.2068 18.8728 44.7282 21.2872 49.157 21.2872C52.5378 21.2872 55.4115 19.8589 55.4115 16.6625C55.4115 14.0101 53.5183 12.7519 51.3207 12.0718L49.698 11.5617C48.6837 11.2557 47.6357 10.9836 47.6357 10.0315C47.6357 9.31738 48.3118 8.87531 49.5289 8.87531C51.4898 8.94333 52.1321 10.0655 52.4364 10.4736ZM24.9504 0L21.1639 14.8942L17.3774 0H12.1709L8.28299 15.3363L4.39506 0H0L5.37549 20.9131H10.8862L14.6389 6.0869L18.3916 20.9131H23.5981L28.9736 0H24.9504ZM38.3046 16.4924C38.1018 16.8665 37.3918 18.3627 35.1267 18.3627C33.301 18.3627 32.0163 16.9345 31.8811 14.9282H42.0911V13.67C42.0911 9.86146 39.826 5.98489 34.9238 5.98489C30.5287 5.98489 27.7227 9.31738 27.7227 13.67C27.7227 17.9887 30.4611 21.3892 35.0928 21.3892C39.1498 21.3892 40.705 18.9748 41.0769 18.1587L38.3046 16.4924ZM34.9576 8.94333C36.8171 8.94333 37.8313 10.3035 37.9665 12.0378H31.8811C32.0501 10.4055 32.9629 8.94333 34.9576 8.94333ZM75.4259 16.4924C75.2231 16.8665 74.5131 18.3627 72.248 18.3627C70.4223 18.3627 69.1376 16.9345 69.0024 14.9282H79.2125V13.67C79.2125 9.86146 76.9473 5.98489 72.0451 5.98489C67.6501 5.98489 64.844 9.31738 64.844 13.67C64.844 17.9887 67.5825 21.3892 72.2142 21.3892C76.2711 21.3892 77.8263 18.9748 78.1982 18.1587L75.4259 16.4924ZM72.0789 8.94333C73.9384 8.94333 74.9526 10.3035 75.0879 12.0378H69.0362C69.2052 10.4055 70.0843 8.94333 72.0789 8.94333Z"
              transform="translate(0 0.340088)"/>
        <path d="M49.9684 3.06045H54.093V6.733H57.3386V9.62343H54.093V16.7305C54.093 17.9887 54.8368 18.8728 56.0877 18.8728C56.4934 18.8728 56.8653 18.8388 57.271 18.7708V21.2872C56.3582 21.5932 55.3777 21.7292 54.3973 21.7292C51.0165 21.7292 49.9684 19.5529 49.9684 16.7985V3.06045ZM2.06348e-06 0.34005H7.09971C13.5571 0.34005 17.614 3.53652 17.614 10.8136C17.614 18.0907 13.6923 21.2872 7.09971 21.2872H2.06348e-06V0.34005ZM4.46267 17.7846H6.82924C12.2385 17.7846 13.0161 14.1461 13.0161 10.8136C13.0161 7.48111 12.1709 3.84257 6.82924 3.84257H4.46267V17.7846ZM74.0398 0.34005H78.2996V21.2531H74.0398V0.34005ZM80.6324 19.8929C80.6324 18.9068 81.4438 18.0907 82.4242 18.0907C83.4047 18.0907 84.2161 18.9068 84.2161 19.8929C84.2161 20.8791 83.4047 21.6952 82.4242 21.6952C81.4438 21.6952 80.6324 20.8791 80.6324 19.8929ZM83.9118 19.8929C83.9118 19.0768 83.2356 18.3967 82.4242 18.4307C81.6128 18.4307 80.9367 19.1108 80.9705 19.927C80.9705 20.7431 81.6466 21.4232 82.458 21.3892C83.2356 21.3552 83.9118 20.7091 83.9118 19.8929ZM82.0862 20.029V20.9131H81.7143V18.8048H82.3904C82.7961 18.8048 83.1342 18.9748 83.1342 19.3829C83.1342 19.6209 82.9652 19.8249 82.7285 19.8929C82.9314 19.927 83.0666 20.097 83.0666 20.301L83.1342 20.9131H82.7961C82.7961 20.9131 82.7623 20.6751 82.7623 20.539C82.7285 20.165 82.5933 20.029 82.3228 20.029H82.0862ZM82.4242 19.7229C82.5933 19.7909 82.7961 19.6889 82.8637 19.5189C82.9314 19.3489 82.8299 19.1448 82.6609 19.0768C82.5933 19.0428 82.4919 19.0428 82.4242 19.0768H82.12V19.7229H82.4242ZM36.0395 6.733V8.29723H35.9719C35.7352 7.85516 34.6871 6.29093 32.0163 6.29093C27.5874 6.29093 25.9646 9.92947 25.9646 13.636C25.9646 17.3426 27.5874 20.9811 32.0163 20.9811C34.7548 20.9811 35.769 19.3829 35.9719 18.9748H36.0395V20.6411C36.0395 22.6474 34.6195 23.9055 32.9629 23.9055C31.6782 23.9395 30.4611 23.2594 29.8188 22.1373C29.4469 22.3413 27.0127 23.7695 27.0127 23.7695C27.317 24.3816 28.5341 27 33.0982 27C37.8651 27 40.1641 23.9395 40.1641 19.6209V6.733H36.0395ZM33.2672 17.8526C30.9006 17.8526 30.4611 15.5403 30.4611 13.636C30.4611 11.4937 31.0697 9.4194 33.2672 9.4194C35.4647 9.4194 36.0733 11.4937 36.0733 13.636C36.0395 15.5063 35.5662 17.8526 33.2672 17.8526ZM58.6233 8.87531C59.029 8.36524 60.4827 6.29093 64.3031 6.29093C67.8867 6.29093 71.1999 7.88917 71.1999 12.0378V21.2531H67.143V19.7909H67.0753C66.8387 20.097 65.8582 21.6612 62.9507 21.6612C60.2461 21.6612 58.2176 19.7909 58.2176 16.9345C58.2176 13.602 60.9561 12.0378 65.1821 12.0378H67.0077V11.6977C67.0077 10.1335 65.8244 9.21537 63.965 9.21537C62.8155 9.18136 61.6998 9.72544 60.9899 10.6776L58.6233 8.87531ZM62.376 16.7305C62.376 17.9547 63.2888 18.7028 64.4721 18.7028C66.2639 18.7028 67.0077 17.2065 67.0077 15.4723V14.5882H65.3849C63.2212 14.5882 62.376 15.5063 62.376 16.7305ZM19.7778 6.733H24.0376V21.2872H19.7778V6.733ZM21.9415 0C20.6568 0 19.6087 1.05416 19.6087 2.34635C19.6087 3.63854 20.6568 4.6927 21.9415 4.6927C23.2262 4.6927 24.2742 3.63854 24.2742 2.34635C24.2742 1.05416 23.2262 0 21.9415 0ZM43.0039 6.733H47.2638V21.2872H43.0039V6.733ZM45.1339 0C43.8492 0 42.8011 1.05416 42.8011 2.34635C42.8011 3.63854 43.8492 4.6927 45.1339 4.6927C46.4186 4.6927 47.4666 3.63854 47.4666 2.34635C47.4666 1.05416 46.4186 0 45.1339 0Z"
              transform="translate(112.784)"/>
    </g>
</svg>
