<svg xmlns="http://www.w3.org/2000/svg" viewBox="0 0 787.427 106.543" role="img" aria-labelledby="winbond-logo-title">
  <title id="winbond-logo-title">Winbond</title>
  <path fill="#e21f35" d="M130.47,26.725l-31.41,46.08l8.67-46.08h-38.2l-31.09,46.48l8.29-46.48H13.11L0,100.165h33.62l0.01-0.021 l37.29-54.9l-10.56,54.92h35l47.83-73.44H130.47z M171.75,26.725l-32.31,73.44h33.66l32.32-73.44H171.75z M309.59,41.515 c0.04-0.1,0.09-0.2,0.13-0.3c4.86-11.5-5.15-14.02-11.77-14.49h-71.36l-26.07,59.25l-6.25,14.19h33.92l6.24-14.19l18.33-41.66 c0,0,0.04-0.1,0.12-0.26c0.37-0.69,1.58-2.54,4.19-2.54h15.5c0,0,0.65-0.09,1.38,0c1.25,0.16,2.75,0.83,1.66,3.34 c0,0.01-0.01,0.02-0.01,0.03l-18.08,41.09l-6.24,14.19h32.5l6.24-14.19l19.56-44.46H309.59z M217.17,0.004h-33.66l-8.41,19.12 h33.66L217.17,0.004z M537.22,41.385c0.58-1.45,5.38-14.66-9.86-14.66h-58.25c-15.13,0-22.01,13.88-22.42,14.75 c-0.01,0.03-0.021,0.04-0.021,0.04L427.1,85.975l-0.36,0.82c-1.17,3.01-4.08,13.37,11.561,13.37h58.119 c12.431,0,18.11-7.931,20.19-11.931c0-0.02,0.01-0.029,0.02-0.04l0.91-2.06c0.04-0.101,0.061-0.16,0.061-0.16l19.569-44.46 C537.169,41.515,537.19,41.475,537.22,41.385z M501.85,46.205l-15.5,35.24c-0.061,0.13-0.12,0.261-0.181,0.391 c-1.92,3.92-5.149,4.14-5.859,4.14c-0.09,0-0.141,0-0.141,0H464.69c-4.04,0-2.21-4.79-1.95-5.42c0.021-0.05,0.03-0.07,0.03-0.07 l16.17-36.76c0,0,0.03-0.08,0.09-0.2c0.28-0.55,1.23-2.01,3.54-2.01h16.29c0,0,0.28-0.02,0.68,0 C500.879,41.604,503.59,42.254,501.85,46.205z M416.419,26.725h-42.29l11.76-26.72h-33.21l-11.76,26.72l-6.5,14.79l-19.57,44.46 l-6.24,14.19h70.88c16.3,0,22.521-9.681,24.2-13.051c0-0.01,0.01-0.02,0.01-0.029l0.49-1.11c0,0,0-0.01,0.01-0.02l0.07-0.16 c0.02-0.04,0.04-0.09,0.06-0.141l0.17-0.38c0.341-0.77,0.931-2.12,1.721-3.92l0.5-1.13c0.35-0.79,0.72-1.64,1.12-2.55l0.619-1.41 c4.24-9.63,10.75-24.42,15.29-34.75v-0.01C429.16,29.205,420.959,27.024,416.419,26.725z M388.43,45.455l-15.36,34.91 c-0.07,0.16-0.14,0.32-0.21,0.471c-1.89,4-4.13,4.949-5.38,5.14c-0.61,0.09-0.99,0-0.99,0H352.2c-3.25,0-2.89-2.52-2.3-4.17 c0-0.03,0.01-0.05,0.02-0.07c0.19-0.52,0.39-0.939,0.51-1.16c0.05-0.119,0.09-0.18,0.09-0.18l15.15-34.44c0,0,0.03-0.07,0.09-0.19 c0.41-0.85,2.26-4.25,5.39-4.25h14.63c0,0,0.39-0.05,0.9,0C387.91,41.635,389.83,42.285,388.43,45.455z M748.02,0.004l-11.76,26.72 h-36.65c-17.08,0-24.79,13.44-25.48,14.7c-0.029,0.06-0.05,0.09-0.05,0.09l-17.95,40.81c0,0-0.09,0.19-0.229,0.521 c-0.25,0.62-0.67,1.74-1.021,3.13c-1.3,5.22-1.6,14.19,11.811,14.19h71.25l6.24-14.19l19.569-44.46l6.5-14.79l11.761-26.72H748.02z M727.76,46.024c-0.051,0.12-0.101,0.24-0.15,0.36l-15.24,34.64c0,0-0.029,0.08-0.1,0.21c-0.48,0.95-2.601,4.74-6.24,4.74h-13.67 c-3.71,0-2.49-3.72-2.1-4.72c0.069-0.16,0.109-0.25,0.109-0.25l16.09-36.56c0,0,0.021-0.05,0.061-0.13c0.31-0.56,1.74-2.8,4.97-2.8 h13.93c0,0,0.011,0,0.021,0C725.74,41.515,729.5,41.604,727.76,46.024z M640.34,26.725h-72.171l-6.5,14.79L542.1,85.975 l-6.24,14.19h33.25l6.25-14.19l17.88-40.65c0,0,0-0.01,0.01-0.04c0.04-0.13,0.181-0.52,0.44-1c0.01-0.02,0.02-0.04,0.03-0.06 c0.609-1.13,1.859-2.71,4.08-2.71h15.869c0,0,0.061,0,0.16,0c0.8,0,4.2,0.22,2.49,4.2c0,0.01-0.01,0.03-0.02,0.05l-17.69,40.21 l-6.24,14.19h32.74l6.25-14.19l19.56-44.46C656.24,29.415,646.2,27.095,640.34,26.725z"/>
</svg>
